Karla-Bold.ufo
<glyph name="exclam" format="2">
  <advance width="586"/>
  <unicode hex="0021"/>
  <outline>
    <contour>
      <point x="198" y="438" type="line"/>
      <point x="400" y="438" type="line"/>
      <point x="428" y="1326" type="line"/>
      <point x="172" y="1326" type="line"/>
    </contour>
    <contour>
      <point x="300" y="-18" type="curve" smooth="yes"/>
      <point x="396" y="-18"/>
      <point x="468" y="48"/>
      <point x="468" y="140" type="curve" smooth="yes"/>
      <point x="468" y="228"/>
      <point x="396" y="298"/>
      <point x="300" y="298" type="curve" smooth="yes"/>
      <point x="204" y="298"/>
      <point x="136" y="228"/>
      <point x="136" y="140" type="curve" smooth="yes"/>
      <point x="136" y="48"/>
      <point x="204" y="-18"/>
    </contour>
  </outline>
</glyph>
<glyph name="numbersign" format="2">
  <advance width="1356"/>
  <unicode hex="0023"/>
  <outline>
    <contour>
      <point x="270" y="66" type="line"/>
      <point x="492" y="66" type="line"/>
      <point x="520" y="328" type="line"/>
      <point x="792" y="328" type="line"/>
      <point x="764" y="66" type="line"/>
      <point x="986" y="66" type="line"/>
      <point x="1014" y="328" type="line"/>
      <point x="1202" y="328" type="line"/>
      <point x="1218" y="482" type="line"/>
      <point x="1030" y="482" type="line"/>
      <point x="1062" y="798" type="line"/>
      <point x="1250" y="798" type="line"/>
      <point x="1266" y="952" type="line"/>
      <point x="1080" y="952" type="line"/>
      <point x="1106" y="1212" type="line"/>
      <point x="886" y="1212" type="line"/>
      <point x="858" y="952" type="line"/>
      <point x="586" y="952" type="line"/>
      <point x="614" y="1212" type="line"/>
      <point x="392" y="1212" type="line"/>
      <point x="364" y="952" type="line"/>
      <point x="178" y="952" type="line"/>
      <point x="162" y="798" type="line"/>
      <point x="348" y="798" type="line"/>
      <point x="314" y="482" type="line"/>
      <point x="128" y="482" type="line"/>
      <point x="114" y="328" type="line"/>
      <point x="298" y="328" type="line"/>
    </contour>
    <contour>
      <point x="536" y="482" type="line"/>
      <point x="570" y="798" type="line"/>
      <point x="842" y="798" type="line"/>
      <point x="808" y="482" type="line"/>
    </contour>
  </outline>
</glyph>
<glyph name="dollar" format="2">
  <advance width="1378"/>
  <unicode hex="0024"/>
  <outline>
    <contour>
      <point x="708" y="-28" type="curve" smooth="yes"/>
      <point x="1080" y="-28"/>
      <point x="1248" y="158"/>
      <point x="1248" y="346" type="curve" smooth="yes"/>
      <point x="1248" y="516"/>
      <point x="1150" y="616"/>
      <point x="950" y="686" type="curve" smooth="yes"/>
      <point x="694" y="776" type="line"/>
      <point x="694" y="572" type="line"/>
      <point x="836" y="518" type="line" smooth="yes"/>
      <point x="930" y="484"/>
      <point x="982" y="428"/>
      <point x="982" y="352" type="curve" smooth="yes"/>
      <point x="982" y="262"/>
      <point x="902" y="188"/>
      <point x="720" y="188" type="curve" smooth="yes"/>
      <point x="492" y="188"/>
      <point x="362" y="250"/>
      <point x="362" y="406" type="curve"/>
      <point x="130" y="406" type="line"/>
      <point x="130" y="106"/>
      <point x="400" y="-28"/>
    </contour>
    <contour>
      <point x="606" y="-202" type="line"/>
      <point x="774" y="-202" type="line"/>
      <point x="774" y="1474" type="line"/>
      <point x="606" y="1474" type="line"/>
    </contour>
    <contour>
      <point x="652" y="568" type="line"/>
      <point x="652" y="776" type="line"/>
      <point x="546" y="820" type="line" smooth="yes"/>
      <point x="454" y="852"/>
      <point x="412" y="892"/>
      <point x="412" y="962" type="curve" smooth="yes"/>
      <point x="412" y="1056"/>
      <point x="502" y="1122"/>
      <point x="678" y="1122" type="curve" smooth="yes"/>
      <point x="848" y="1122"/>
      <point x="946" y="1042"/>
      <point x="966" y="940" type="curve"/>
      <point x="1200" y="940" type="line"/>
      <point x="1160" y="1176"/>
      <point x="1000" y="1324"/>
      <point x="682" y="1324" type="curve" smooth="yes"/>
      <point x="340" y="1324"/>
      <point x="156" y="1180"/>
      <point x="156" y="970" type="curve" smooth="yes"/>
      <point x="156" y="786"/>
      <point x="282" y="694"/>
      <point x="506" y="618" type="curve" smooth="yes"/>
    </contour>
  </outline>
</glyph>
<glyph name="percent" format="2">
  <advance width="1529"/>
  <unicode hex="0025"/>
  <outline>
    <contour>
      <point x="212" y="0" type="line"/>
      <point x="452" y="0" type="line"/>
      <point x="1330" y="1298" type="line"/>
      <point x="1092" y="1298" type="line"/>
    </contour>
    <contour>
      <point x="1150" y="-22" type="curve" smooth="yes"/>
      <point x="1298" y="-22"/>
      <point x="1426" y="78"/>
      <point x="1426" y="282" type="curve" smooth="yes"/>
      <point x="1426" y="486"/>
      <point x="1298" y="586"/>
      <point x="1150" y="586" type="curve" smooth="yes"/>
      <point x="1006" y="586"/>
      <point x="878" y="486"/>
      <point x="878" y="282" type="curve" smooth="yes"/>
      <point x="878" y="78"/>
      <point x="1006" y="-22"/>
    </contour>
    <contour>
      <point x="1150" y="130" type="curve" smooth="yes"/>
      <point x="1092" y="130"/>
      <point x="1054" y="170"/>
      <point x="1054" y="282" type="curve" smooth="yes"/>
      <point x="1054" y="392"/>
      <point x="1092" y="436"/>
      <point x="1150" y="436" type="curve" smooth="yes"/>
      <point x="1208" y="436"/>
      <point x="1248" y="392"/>
      <point x="1248" y="282" type="curve" smooth="yes"/>
      <point x="1248" y="170"/>
      <point x="1208" y="130"/>
    </contour>
    <contour>
      <point x="394" y="718" type="curve" smooth="yes"/>
      <point x="542" y="718"/>
      <point x="670" y="818"/>
      <point x="670" y="1022" type="curve" smooth="yes"/>
      <point x="670" y="1224"/>
      <point x="542" y="1324"/>
      <point x="394" y="1324" type="curve" smooth="yes"/>
      <point x="250" y="1324"/>
      <point x="122" y="1224"/>
      <point x="122" y="1022" type="curve" smooth="yes"/>
      <point x="122" y="818"/>
      <point x="250" y="718"/>
    </contour>
    <contour>
      <point x="394" y="868" type="curve" smooth="yes"/>
      <point x="336" y="868"/>
      <point x="298" y="910"/>
      <point x="298" y="1022" type="curve" smooth="yes"/>
      <point x="298" y="1132"/>
      <point x="336" y="1174"/>
      <point x="394" y="1174" type="curve" smooth="yes"/>
      <point x="452" y="1174"/>
      <point x="492" y="1132"/>
      <point x="492" y="1022" type="curve" smooth="yes"/>
      <point x="492" y="910"/>
      <point x="452" y="868"/>
    </contour>
  </outline>
</glyph>
<glyph name="ampersand" format="2">
  <advance width="1930"/>
  <unicode hex="0026"/>
  <outline>
    <contour>
      <point x="1512" y="-28" type="curve" smooth="yes"/>
      <point x="1714" y="-28"/>
      <point x="1816" y="110"/>
      <point x="1822" y="328" type="curve"/>
      <point x="1608" y="328" type="line"/>
      <point x="1604" y="224"/>
      <point x="1552" y="180"/>
      <point x="1488" y="180" type="curve" smooth="yes"/>
      <point x="1426" y="180"/>
      <point x="1390" y="202"/>
      <point x="1342" y="244" type="curve" smooth="yes"/>
      <point x="728" y="798" type="line" smooth="yes"/>
      <point x="664" y="856"/>
      <point x="634" y="908"/>
      <point x="634" y="970" type="curve" smooth="yes"/>
      <point x="634" y="1050"/>
      <point x="696" y="1116"/>
      <point x="812" y="1116" type="curve" smooth="yes"/>
      <point x="912" y="1116"/>
      <point x="980" y="1058"/>
      <point x="980" y="978" type="curve" smooth="yes"/>
      <point x="980" y="874"/>
      <point x="900" y="804"/>
      <point x="720" y="734" type="curve"/>
      <point x="844" y="618" type="line"/>
      <point x="1108" y="706"/>
      <point x="1240" y="828"/>
      <point x="1240" y="1008" type="curve" smooth="yes"/>
      <point x="1240" y="1180"/>
      <point x="1082" y="1320"/>
      <point x="812" y="1320" type="curve" smooth="yes"/>
      <point x="532" y="1320"/>
      <point x="374" y="1180"/>
      <point x="374" y="1004" type="curve" smooth="yes"/>
      <point x="374" y="896"/>
      <point x="434" y="794"/>
      <point x="518" y="718" type="curve" smooth="yes"/>
      <point x="1152" y="144" type="line" smooth="yes"/>
      <point x="1278" y="28"/>
      <point x="1382" y="-28"/>
    </contour>
    <contour>
      <point x="720" y="-28" type="curve" smooth="yes"/>
      <point x="1100" y="-28"/>
      <point x="1380" y="262"/>
      <point x="1526" y="688" type="curve"/>
      <point x="1368" y="776" type="line"/>
      <point x="1232" y="438"/>
      <point x="1018" y="186"/>
      <point x="722" y="186" type="curve" smooth="yes"/>
      <point x="546" y="186"/>
      <point x="444" y="274"/>
      <point x="444" y="384" type="curve" smooth="yes"/>
      <point x="444" y="490"/>
      <point x="530" y="556"/>
      <point x="734" y="574" type="curve"/>
      <point x="658" y="702" type="line"/>
      <point x="360" y="678"/>
      <point x="184" y="576"/>
      <point x="184" y="370" type="curve" smooth="yes"/>
      <point x="184" y="144"/>
      <point x="424" y="-28"/>
    </contour>
  </outline>
</glyph>
<glyph name="quotesingle" format="2">
  <advance width="359"/>
  <unicode hex="0027"/>
  <outline>
    <contour>
      <point x="62" y="1354" type="line"/>
      <point x="92" y="878" type="line"/>
      <point x="266" y="878" type="line"/>
      <point x="298" y="1354" type="line"/>
    </contour>
  </outline>
</glyph>
<glyph name="parenleft" format="2">
  <advance width="799"/>
  <unicode hex="0028"/>
  <outline>
    <contour>
      <point x="564" y="1508" type="line"/>
      <point x="278" y="1256"/>
      <point x="146" y="962"/>
      <point x="146" y="636" type="curve" smooth="yes"/>
      <point x="146" y="312"/>
      <point x="278" y="18"/>
      <point x="564" y="-236" type="curve"/>
      <point x="734" y="-108" type="line"/>
      <point x="504" y="130"/>
      <point x="390" y="364"/>
      <point x="390" y="636" type="curve" smooth="yes"/>
      <point x="390" y="910"/>
      <point x="504" y="1144"/>
      <point x="734" y="1384" type="curve"/>
    </contour>
  </outline>
</glyph>
<glyph name="parenright" format="2">
  <advance width="799"/>
  <unicode hex="0029"/>
  <outline>
    <contour>
      <point x="236" y="-236" type="line"/>
      <point x="520" y="18"/>
      <point x="654" y="312"/>
      <point x="654" y="636" type="curve" smooth="yes"/>
      <point x="654" y="962"/>
      <point x="520" y="1256"/>
      <point x="236" y="1508" type="curve"/>
      <point x="64" y="1384" type="line"/>
      <point x="294" y="1144"/>
      <point x="410" y="910"/>
      <point x="410" y="636" type="curve" smooth="yes"/>
      <point x="410" y="364"/>
      <point x="294" y="130"/>
      <point x="64" y="-108" type="curve"/>
    </contour>
  </outline>
</glyph>
<glyph name="asterisk" format="2">
  <advance width="818"/>
  <unicode hex="002A"/>
  <outline>
    <contour>
      <point x="150" y="894" type="line"/>
      <point x="264" y="792" type="line"/>
      <point x="416" y="994" type="line"/>
      <point x="564" y="792" type="line"/>
      <point x="682" y="894" type="line"/>
      <point x="510" y="1058" type="line"/>
      <point x="728" y="1132" type="line"/>
      <point x="668" y="1274" type="line"/>
      <point x="470" y="1170" type="line"/>
      <point x="494" y="1408" type="line"/>
      <point x="334" y="1408" type="line"/>
      <point x="358" y="1170" type="line"/>
      <point x="160" y="1270" type="line"/>
      <point x="100" y="1130" type="line"/>
      <point x="322" y="1056" type="line"/>
    </contour>
  </outline>
</glyph>
<glyph name="plus" format="2">
  <advance width="1087"/>
  <unicode hex="002B"/>
  <outline>
    <contour>
      <point x="426" y="982" type="line"/>
      <point x="426" y="594" type="line"/>
      <point x="36" y="594" type="line"/>
      <point x="36" y="388" type="line"/>
      <point x="426" y="388" type="line"/>
      <point x="426" y="0" type="line"/>
      <point x="662" y="0" type="line"/>
      <point x="662" y="388" type="line"/>
      <point x="1052" y="388" type="line"/>
      <point x="1052" y="594" type="line"/>
      <point x="662" y="594" type="line"/>
      <point x="662" y="982" type="line"/>
    </contour>
  </outline>
</glyph>
<glyph name="comma" format="2">
  <advance width="506"/>
  <unicode hex="002C"/>
  <outline>
    <contour>
      <point x="222" y="-272" type="line"/>
      <point x="364" y="-202"/>
      <point x="450" y="-66"/>
      <point x="450" y="58" type="curve" smooth="yes"/>
      <point x="450" y="176"/>
      <point x="378" y="270"/>
      <point x="260" y="270" type="curve" smooth="yes"/>
      <point x="166" y="270"/>
      <point x="98" y="208"/>
      <point x="98" y="128" type="curve" smooth="yes"/>
      <point x="98" y="52"/>
      <point x="158" y="4"/>
      <point x="232" y="-10" type="curve"/>
      <point x="210" y="-84"/>
      <point x="136" y="-140"/>
      <point x="48" y="-184" type="curve"/>
    </contour>
  </outline>
</glyph>
<glyph name="hyphen" format="2">
  <advance width="747"/>
  <unicode hex="002D"/>
  <outline>
    <contour>
      <point x="92" y="500" type="line"/>
      <point x="654" y="500" type="line"/>
      <point x="654" y="706" type="line"/>
      <point x="92" y="706" type="line"/>
    </contour>
  </outline>
</glyph>
<glyph name="period" format="2">
  <advance width="430"/>
  <unicode hex="002E"/>
  <outline>
    <contour>
      <point x="48" y="140" type="curve" smooth="yes"/>
      <point x="48" y="48"/>
      <point x="116" y="-18"/>
      <point x="212" y="-18" type="curve" smooth="yes"/>
      <point x="308" y="-18"/>
      <point x="380" y="48"/>
      <point x="380" y="140" type="curve" smooth="yes"/>
      <point x="380" y="228"/>
      <point x="308" y="298"/>
      <point x="212" y="298" type="curve" smooth="yes"/>
      <point x="116" y="298"/>
      <point x="48" y="228"/>
    </contour>
  </outline>
</glyph>
<glyph name="slash" format="2">
  <advance width="943"/>
  <unicode hex="002F"/>
  <outline>
    <contour>
      <point x="106" y="-160" type="line"/>
      <point x="344" y="-160" type="line"/>
      <point x="862" y="1490" type="line"/>
      <point x="620" y="1490" type="line"/>
    </contour>
  </outline>
</glyph>
<glyph name="zero" format="2">
  <advance width="1265"/>
  <unicode hex="0030"/>
  <outline>
    <contour>
      <point x="634" y="-28" type="curve" smooth="yes"/>
      <point x="950" y="-28"/>
      <point x="1172" y="192"/>
      <point x="1172" y="648" type="curve" smooth="yes"/>
      <point x="1172" y="1106"/>
      <point x="950" y="1324"/>
      <point x="634" y="1324" type="curve" smooth="yes"/>
      <point x="314" y="1324"/>
      <point x="94" y="1106"/>
      <point x="94" y="648" type="curve" smooth="yes"/>
      <point x="94" y="192"/>
      <point x="314" y="-28"/>
    </contour>
    <contour>
      <point x="634" y="188" type="curve" smooth="yes"/>
      <point x="446" y="188"/>
      <point x="338" y="350"/>
      <point x="338" y="648" type="curve" smooth="yes"/>
      <point x="338" y="946"/>
      <point x="446" y="1110"/>
      <point x="634" y="1110" type="curve" smooth="yes"/>
      <point x="820" y="1110"/>
      <point x="928" y="946"/>
      <point x="928" y="648" type="curve" smooth="yes"/>
      <point x="928" y="350"/>
      <point x="820" y="188"/>
    </contour>
  </outline>
</glyph>
<glyph name="one" format="2">
  <advance width="713"/>
  <unicode hex="0031"/>
  <outline>
    <contour>
      <point x="348" y="1306" type="line"/>
      <point x="258" y="1240"/>
      <point x="174" y="1210"/>
      <point x="84" y="1200" type="curve"/>
      <point x="84" y="974" type="line"/>
      <point x="152" y="974"/>
      <point x="220" y="992"/>
      <point x="290" y="1024" type="curve"/>
      <point x="290" y="0" type="line"/>
      <point x="526" y="0" type="line"/>
      <point x="526" y="1306" type="line"/>
    </contour>
  </outline>
</glyph>
<glyph name="two" format="2">
  <advance width="1210"/>
  <unicode hex="0032"/>
  <outline>
    <contour>
      <point x="120" y="0" type="line"/>
      <point x="1098" y="0" type="line"/>
      <point x="1098" y="216" type="line"/>
      <point x="356" y="216" type="line"/>
      <point x="356" y="254" type="line" smooth="yes"/>
      <point x="356" y="332"/>
      <point x="400" y="376"/>
      <point x="504" y="416" type="curve" smooth="yes"/>
      <point x="772" y="520" type="line" smooth="yes"/>
      <point x="998" y="608"/>
      <point x="1106" y="730"/>
      <point x="1106" y="930" type="curve" smooth="yes"/>
      <point x="1106" y="1166"/>
      <point x="900" y="1324"/>
      <point x="638" y="1324" type="curve" smooth="yes"/>
      <point x="360" y="1324"/>
      <point x="148" y="1194"/>
      <point x="142" y="928" type="curve"/>
      <point x="404" y="928" type="line"/>
      <point x="416" y="1052"/>
      <point x="512" y="1118"/>
      <point x="642" y="1118" type="curve" smooth="yes"/>
      <point x="776" y="1118"/>
      <point x="852" y="1040"/>
      <point x="852" y="940" type="curve" smooth="yes"/>
      <point x="852" y="840"/>
      <point x="798" y="774"/>
      <point x="682" y="728" type="curve" smooth="yes"/>
      <point x="416" y="626" type="line" smooth="yes"/>
      <point x="218" y="550"/>
      <point x="120" y="440"/>
      <point x="120" y="222" type="curve" smooth="yes"/>
    </contour>
  </outline>
</glyph>
<glyph name="three" format="2">
  <advance width="1244"/>
  <unicode hex="0033"/>
  <outline>
    <contour>
      <point x="626" y="-28" type="curve" smooth="yes"/>
      <point x="936" y="-28"/>
      <point x="1142" y="134"/>
      <point x="1142" y="364" type="curve" smooth="yes"/>
      <point x="1142" y="520"/>
      <point x="1038" y="626"/>
      <point x="882" y="680" type="curve"/>
      <point x="1022" y="728"/>
      <point x="1096" y="830"/>
      <point x="1096" y="962" type="curve" smooth="yes"/>
      <point x="1096" y="1176"/>
      <point x="890" y="1324"/>
      <point x="608" y="1324" type="curve" smooth="yes"/>
      <point x="342" y="1324"/>
      <point x="144" y="1210"/>
      <point x="116" y="944" type="curve"/>
      <point x="364" y="944" type="line"/>
      <point x="390" y="1066"/>
      <point x="496" y="1110"/>
      <point x="618" y="1110" type="curve" smooth="yes"/>
      <point x="768" y="1110"/>
      <point x="842" y="1034"/>
      <point x="842" y="934" type="curve" smooth="yes"/>
      <point x="842" y="822"/>
      <point x="750" y="752"/>
      <point x="598" y="752" type="curve" smooth="yes"/>
      <point x="452" y="752" type="line"/>
      <point x="452" y="566" type="line"/>
      <point x="624" y="566" type="line" smooth="yes"/>
      <point x="804" y="566"/>
      <point x="886" y="498"/>
      <point x="886" y="386" type="curve" smooth="yes"/>
      <point x="886" y="272"/>
      <point x="788" y="188"/>
      <point x="626" y="188" type="curve" smooth="yes"/>
      <point x="460" y="188"/>
      <point x="346" y="272"/>
      <point x="338" y="408" type="curve"/>
      <point x="90" y="408" type="line"/>
      <point x="90" y="122"/>
      <point x="352" y="-28"/>
    </contour>
  </outline>
</glyph>
<glyph name="four" format="2">
  <advance width="1190"/>
  <unicode hex="0034"/>
  <outline>
    <contour>
      <point x="708" y="1312" type="line"/>
      <point x="44" y="466" type="line"/>
      <point x="44" y="288" type="line"/>
      <point x="702" y="288" type="line"/>
      <point x="702" y="0" type="line"/>
      <point x="936" y="0" type="line"/>
      <point x="936" y="288" type="line"/>
      <point x="1162" y="288" type="line"/>
      <point x="1162" y="490" type="line"/>
      <point x="936" y="490" type="line"/>
      <point x="936" y="1312" type="line"/>
    </contour>
    <contour>
      <point x="714" y="962" type="line"/>
      <point x="714" y="466" type="line"/>
      <point x="324" y="466" type="line"/>
    </contour>
  </outline>
</glyph>
<glyph name="five" format="2">
  <advance width="1164"/>
  <unicode hex="0035"/>
  <outline>
    <contour>
      <point x="594" y="-28" type="curve" smooth="yes"/>
      <point x="890" y="-28"/>
      <point x="1084" y="174"/>
      <point x="1084" y="432" type="curve" smooth="yes"/>
      <point x="1084" y="674"/>
      <point x="912" y="808"/>
      <point x="644" y="808" type="curve" smooth="yes"/>
      <point x="580" y="808"/>
      <point x="480" y="800"/>
      <point x="416" y="786" type="curve"/>
      <point x="436" y="764" type="line"/>
      <point x="474" y="1150" type="line"/>
      <point x="428" y="1082" type="line"/>
      <point x="1016" y="1082" type="line"/>
      <point x="1016" y="1298" type="line"/>
      <point x="238" y="1298" type="line"/>
      <point x="178" y="632" type="line"/>
      <point x="574" y="632" type="line" smooth="yes"/>
      <point x="752" y="632"/>
      <point x="842" y="562"/>
      <point x="842" y="432" type="curve" smooth="yes"/>
      <point x="842" y="294"/>
      <point x="740" y="188"/>
      <point x="594" y="188" type="curve" smooth="yes"/>
      <point x="458" y="188"/>
      <point x="354" y="254"/>
      <point x="354" y="388" type="curve"/>
      <point x="114" y="388" type="line"/>
      <point x="120" y="122"/>
      <point x="314" y="-28"/>
    </contour>
  </outline>
</glyph>
<glyph name="six" format="2">
  <advance width="1214"/>
  <unicode hex="0036"/>
  <outline>
    <contour>
      <point x="644" y="-28" type="curve" smooth="yes"/>
      <point x="924" y="-28"/>
      <point x="1116" y="138"/>
      <point x="1116" y="384" type="curve" smooth="yes"/>
      <point x="1116" y="624"/>
      <point x="946" y="796"/>
      <point x="702" y="796" type="curve" smooth="yes"/>
      <point x="532" y="796"/>
      <point x="370" y="720"/>
      <point x="338" y="474" type="curve"/>
      <point x="332" y="516"/>
      <point x="330" y="566"/>
      <point x="330" y="606" type="curve" smooth="yes"/>
      <point x="330" y="916"/>
      <point x="458" y="1110"/>
      <point x="664" y="1110" type="curve" smooth="yes"/>
      <point x="776" y="1110"/>
      <point x="836" y="1046"/>
      <point x="850" y="942" type="curve"/>
      <point x="1102" y="942" type="line"/>
      <point x="1092" y="1172"/>
      <point x="914" y="1324"/>
      <point x="656" y="1324" type="curve" smooth="yes"/>
      <point x="318" y="1324"/>
      <point x="94" y="1072"/>
      <point x="94" y="626" type="curve" smooth="yes"/>
      <point x="94" y="248"/>
      <point x="318" y="-28"/>
    </contour>
    <contour>
      <point x="644" y="188" type="curve" smooth="yes"/>
      <point x="520" y="188"/>
      <point x="420" y="270"/>
      <point x="420" y="394" type="curve" smooth="yes"/>
      <point x="420" y="518"/>
      <point x="520" y="602"/>
      <point x="644" y="602" type="curve" smooth="yes"/>
      <point x="770" y="602"/>
      <point x="872" y="524"/>
      <point x="872" y="394" type="curve" smooth="yes"/>
      <point x="872" y="270"/>
      <point x="770" y="188"/>
    </contour>
  </outline>
</glyph>
<glyph name="seven" format="2">
  <advance width="995"/>
  <unicode hex="0037"/>
  <outline>
    <contour>
      <point x="88" y="0" type="line"/>
      <point x="406" y="0" type="line"/>
      <point x="960" y="1072" type="line"/>
      <point x="960" y="1298" type="line"/>
      <point x="48" y="1298" type="line"/>
      <point x="48" y="1070" type="line"/>
      <point x="682" y="1070" type="line"/>
    </contour>
  </outline>
</glyph>
<glyph name="nine" format="2">
  <advance width="1220"/>
  <unicode hex="0039"/>
  <outline>
    <contour>
      <point x="594" y="-28" type="curve" smooth="yes"/>
      <point x="950" y="-28"/>
      <point x="1126" y="244"/>
      <point x="1126" y="670" type="curve" smooth="yes"/>
      <point x="1126" y="1062"/>
      <point x="884" y="1324"/>
      <point x="574" y="1324" type="curve" smooth="yes"/>
      <point x="298" y="1324"/>
      <point x="106" y="1160"/>
      <point x="106" y="912" type="curve" smooth="yes"/>
      <point x="106" y="672"/>
      <point x="276" y="502"/>
      <point x="518" y="502" type="curve" smooth="yes"/>
      <point x="694" y="502"/>
      <point x="844" y="588"/>
      <point x="882" y="808" type="curve"/>
      <point x="888" y="766"/>
      <point x="890" y="730"/>
      <point x="890" y="690" type="curve" smooth="yes"/>
      <point x="890" y="388"/>
      <point x="804" y="188"/>
      <point x="586" y="188" type="curve" smooth="yes"/>
      <point x="462" y="188"/>
      <point x="372" y="264"/>
      <point x="366" y="384" type="curve"/>
      <point x="120" y="384" type="line"/>
      <point x="120" y="140"/>
      <point x="326" y="-28"/>
    </contour>
    <contour>
      <point x="576" y="696" type="curve" smooth="yes"/>
      <point x="450" y="696"/>
      <point x="350" y="772"/>
      <point x="350" y="900" type="curve" smooth="yes"/>
      <point x="350" y="1028"/>
      <point x="450" y="1108"/>
      <point x="574" y="1108" type="curve" smooth="yes"/>
      <point x="698" y="1108"/>
      <point x="802" y="1028"/>
      <point x="802" y="900" type="curve" smooth="yes"/>
      <point x="802" y="780"/>
      <point x="698" y="696"/>
    </contour>
  </outline>
</glyph>
<glyph name="less" format="2">
  <advance width="1004"/>
  <unicode hex="003C"/>
  <outline>
    <contour>
      <point x="758" y="1234" type="line"/>
      <point x="90" y="750" type="line"/>
      <point x="90" y="538" type="line"/>
      <point x="758" y="56" type="line"/>
      <point x="914" y="236" type="line"/>
      <point x="260" y="694" type="line"/>
      <point x="260" y="594" type="line"/>
      <point x="914" y="1054" type="line"/>
    </contour>
  </outline>
</glyph>
<glyph name="equal" format="2">
  <advance width="1012"/>
  <unicode hex="003D"/>
  <outline>
    <contour>
      <point x="158" y="396" type="line"/>
      <point x="158" y="192" type="line"/>
      <point x="854" y="192" type="line"/>
      <point x="854" y="396" type="line"/>
    </contour>
    <contour>
      <point x="158" y="816" type="line"/>
      <point x="158" y="612" type="line"/>
      <point x="854" y="612" type="line"/>
      <point x="854" y="816" type="line"/>
    </contour>
  </outline>
</glyph>
<glyph name="greater" format="2">
  <advance width="1004"/>
  <unicode hex="003E"/>
  <outline>
    <contour>
      <point x="246" y="56" type="line"/>
      <point x="914" y="538" type="line"/>
      <point x="914" y="750" type="line"/>
      <point x="246" y="1234" type="line"/>
      <point x="90" y="1054" type="line"/>
      <point x="742" y="594" type="line"/>
      <point x="742" y="694" type="line"/>
      <point x="90" y="236" type="line"/>
    </contour>
  </outline>
</glyph>
<glyph name="question" format="2">
  <advance width="1034"/>
  <unicode hex="003F"/>
  <outline>
    <contour>
      <point x="350" y="388" type="line"/>
      <point x="586" y="388" type="line"/>
      <point x="586" y="446" type="line" smooth="yes"/>
      <point x="586" y="550"/>
      <point x="624" y="592"/>
      <point x="754" y="658" type="curve" smooth="yes"/>
      <point x="902" y="732"/>
      <point x="970" y="822"/>
      <point x="970" y="962" type="curve" smooth="yes"/>
      <point x="970" y="1166"/>
      <point x="794" y="1324"/>
      <point x="510" y="1324" type="curve" smooth="yes"/>
      <point x="222" y="1324"/>
      <point x="62" y="1172"/>
      <point x="48" y="940" type="curve"/>
      <point x="294" y="940" type="line"/>
      <point x="304" y="1042"/>
      <point x="380" y="1110"/>
      <point x="520" y="1110" type="curve" smooth="yes"/>
      <point x="638" y="1110"/>
      <point x="710" y="1048"/>
      <point x="710" y="964" type="curve" smooth="yes"/>
      <point x="710" y="886"/>
      <point x="676" y="844"/>
      <point x="550" y="780" type="curve" smooth="yes"/>
      <point x="406" y="708"/>
      <point x="350" y="642"/>
      <point x="350" y="468" type="curve" smooth="yes"/>
    </contour>
    <contour>
      <point x="474" y="-28" type="curve" smooth="yes"/>
      <point x="570" y="-28"/>
      <point x="642" y="40"/>
      <point x="642" y="128" type="curve" smooth="yes"/>
      <point x="642" y="218"/>
      <point x="570" y="286"/>
      <point x="474" y="286" type="curve" smooth="yes"/>
      <point x="376" y="286"/>
      <point x="310" y="218"/>
      <point x="310" y="128" type="curve" smooth="yes"/>
      <point x="310" y="40"/>
      <point x="376" y="-28"/>
    </contour>
  </outline>
</glyph>
<glyph name="at" format="2">
  <advance width="2053"/>
  <unicode hex="0040"/>
  <outline>
    <contour>
      <point x="1138" y="-434" type="curve"/>
      <point x="1138" y="-242" type="line"/>
      <point x="646" y="-242"/>
      <point x="372" y="26"/>
      <point x="372" y="404" type="curve" smooth="yes"/>
      <point x="372" y="806"/>
      <point x="676" y="1112"/>
      <point x="1118" y="1112" type="curve" smooth="yes"/>
      <point x="1500" y="1112"/>
      <point x="1714" y="882"/>
      <point x="1714" y="586" type="curve" smooth="yes"/>
      <point x="1714" y="306"/>
      <point x="1560" y="198"/>
      <point x="1478" y="198" type="curve" smooth="yes"/>
      <point x="1430" y="198"/>
      <point x="1406" y="226"/>
      <point x="1406" y="300" type="curve" smooth="yes"/>
      <point x="1406" y="562" type="line" smooth="yes"/>
      <point x="1406" y="774"/>
      <point x="1294" y="880"/>
      <point x="1118" y="880" type="curve" smooth="yes"/>
      <point x="858" y="880"/>
      <point x="636" y="664"/>
      <point x="636" y="384" type="curve" smooth="yes"/>
      <point x="636" y="168"/>
      <point x="798" y="14"/>
      <point x="966" y="14" type="curve" smooth="yes"/>
      <point x="1104" y="14"/>
      <point x="1172" y="78"/>
      <point x="1224" y="178" type="curve"/>
      <point x="1236" y="146" type="line" smooth="yes"/>
      <point x="1260" y="64"/>
      <point x="1344" y="14"/>
      <point x="1470" y="14" type="curve" smooth="yes"/>
      <point x="1710" y="14"/>
      <point x="1952" y="218"/>
      <point x="1952" y="586" type="curve" smooth="yes"/>
      <point x="1952" y="998"/>
      <point x="1616" y="1324"/>
      <point x="1118" y="1324" type="curve" smooth="yes"/>
      <point x="554" y="1324"/>
      <point x="134" y="960"/>
      <point x="134" y="420" type="curve" smooth="yes"/>
      <point x="134" y="-58"/>
      <point x="530" y="-434"/>
    </contour>
    <contour>
      <point x="1014" y="204" type="curve" smooth="yes"/>
      <point x="920" y="204"/>
      <point x="848" y="270"/>
      <point x="848" y="388" type="curve" smooth="yes"/>
      <point x="848" y="580"/>
      <point x="994" y="698"/>
      <point x="1110" y="698" type="curve" smooth="yes"/>
      <point x="1192" y="698"/>
      <point x="1218" y="642"/>
      <point x="1218" y="560" type="curve" smooth="yes"/>
      <point x="1218" y="360" type="line"/>
      <point x="1162" y="256"/>
      <point x="1108" y="204"/>
    </contour>
  </outline>
</glyph>
<glyph name="A" format="2">
  <advance width="1251"/>
  <unicode hex="0041"/>
  <anchor x="632" y="1324" name="above"/>
  <outline>
    <contour>
      <point x="44" y="0" type="line"/>
      <point x="294" y="0" type="line"/>
      <point x="386" y="280" type="line"/>
      <point x="868" y="280" type="line"/>
      <point x="958" y="0" type="line"/>
      <point x="1206" y="0" type="line"/>
      <point x="782" y="1298" type="line"/>
      <point x="486" y="1298" type="line"/>
    </contour>
    <contour>
      <point x="446" y="458" type="line"/>
      <point x="630" y="1016" type="line"/>
      <point x="812" y="458" type="line"/>
    </contour>
  </outline>
</glyph>
<glyph name="B" format="2">
  <advance width="1296"/>
  <unicode hex="0042"/>
  <outline>
    <contour>
      <point x="186" y="0" type="line"/>
      <point x="712" y="0" type="line" smooth="yes"/>
      <point x="1078" y="0"/>
      <point x="1178" y="196"/>
      <point x="1178" y="360" type="curve" smooth="yes"/>
      <point x="1178" y="518"/>
      <point x="1068" y="626"/>
      <point x="922" y="656" type="curve"/>
      <point x="1070" y="698"/>
      <point x="1156" y="808"/>
      <point x="1156" y="954" type="curve" smooth="yes"/>
      <point x="1156" y="1144"/>
      <point x="1010" y="1298"/>
      <point x="710" y="1298" type="curve" smooth="yes"/>
      <point x="186" y="1298" type="line"/>
    </contour>
    <contour>
      <point x="422" y="206" type="line"/>
      <point x="422" y="544" type="line"/>
      <point x="706" y="544" type="line" smooth="yes"/>
      <point x="852" y="544"/>
      <point x="924" y="476"/>
      <point x="924" y="374" type="curve" smooth="yes"/>
      <point x="924" y="272"/>
      <point x="856" y="206"/>
      <point x="706" y="206" type="curve" smooth="yes"/>
    </contour>
    <contour>
      <point x="422" y="1094" type="line"/>
      <point x="702" y="1094" type="line" smooth="yes"/>
      <point x="842" y="1094"/>
      <point x="914" y="1026"/>
      <point x="914" y="924" type="curve" smooth="yes"/>
      <point x="914" y="816"/>
      <point x="840" y="750"/>
      <point x="700" y="750" type="curve" smooth="yes"/>
      <point x="422" y="750" type="line"/>
    </contour>
  </outline>
</glyph>
<glyph name="C" format="2">
  <advance width="1267"/>
  <unicode hex="0043"/>
  <outline>
    <contour>
      <point x="658" y="-28" type="curve" smooth="yes"/>
      <point x="980" y="-28"/>
      <point x="1176" y="138"/>
      <point x="1176" y="428" type="curve"/>
      <point x="924" y="428" type="line"/>
      <point x="924" y="288"/>
      <point x="826" y="188"/>
      <point x="658" y="188" type="curve" smooth="yes"/>
      <point x="460" y="188"/>
      <point x="348" y="364"/>
      <point x="348" y="652" type="curve" smooth="yes"/>
      <point x="348" y="958"/>
      <point x="484" y="1110"/>
      <point x="658" y="1110" type="curve" smooth="yes"/>
      <point x="790" y="1110"/>
      <point x="882" y="1018"/>
      <point x="924" y="882" type="curve"/>
      <point x="1176" y="928" type="line"/>
      <point x="1128" y="1162"/>
      <point x="960" y="1324"/>
      <point x="658" y="1324" type="curve" smooth="yes"/>
      <point x="330" y="1324"/>
      <point x="94" y="1092"/>
      <point x="94" y="652" type="curve" smooth="yes"/>
      <point x="94" y="226"/>
      <point x="316" y="-28"/>
    </contour>
  </outline>
</glyph>
<glyph name="D" format="2">
  <advance width="1373"/>
  <unicode hex="0044"/>
  <outline>
    <contour>
      <point x="186" y="1298" type="line"/>
      <point x="186" y="0" type="line"/>
      <point x="606" y="0" type="line" smooth="yes"/>
      <point x="1002" y="0"/>
      <point x="1268" y="254"/>
      <point x="1268" y="648" type="curve" smooth="yes"/>
      <point x="1268" y="1046"/>
      <point x="1002" y="1298"/>
      <point x="606" y="1298" type="curve" smooth="yes"/>
    </contour>
    <contour>
      <point x="422" y="1084" type="line"/>
      <point x="606" y="1084" type="line" smooth="yes"/>
      <point x="858" y="1084"/>
      <point x="1014" y="902"/>
      <point x="1014" y="648" type="curve" smooth="yes"/>
      <point x="1014" y="398"/>
      <point x="858" y="212"/>
      <point x="606" y="212" type="curve" smooth="yes"/>
      <point x="422" y="212" type="line"/>
    </contour>
  </outline>
</glyph>
<glyph name="E" format="2">
  <advance width="1173"/>
  <unicode hex="0045"/>
  <anchor x="600" y="1324" name="above"/>
  <outline>
    <contour>
      <point x="184" y="0" type="line"/>
      <point x="1018" y="0" type="line"/>
      <point x="1018" y="206" type="line"/>
      <point x="420" y="206" type="line"/>
      <point x="420" y="548" type="line"/>
      <point x="982" y="548" type="line"/>
      <point x="982" y="752" type="line"/>
      <point x="420" y="752" type="line"/>
      <point x="420" y="1094" type="line"/>
      <point x="1018" y="1094" type="line"/>
      <point x="1018" y="1298" type="line"/>
      <point x="184" y="1298" type="line"/>
    </contour>
  </outline>
</glyph>
<glyph name="F" format="2">
  <advance width="1093"/>
  <unicode hex="0046"/>
  <outline>
    <contour>
      <point x="186" y="0" type="line"/>
      <point x="422" y="0" type="line"/>
      <point x="422" y="550" type="line"/>
      <point x="954" y="550" type="line"/>
      <point x="954" y="752" type="line"/>
      <point x="422" y="752" type="line"/>
      <point x="422" y="1094" type="line"/>
      <point x="1004" y="1094" type="line"/>
      <point x="1004" y="1298" type="line"/>
      <point x="186" y="1298" type="line"/>
    </contour>
  </outline>
</glyph>
<glyph name="G" format="2">
  <advance width="1354"/>
  <unicode hex="0047"/>
  <outline>
    <contour>
      <point x="660" y="-28" type="curve" smooth="yes"/>
      <point x="914" y="-28"/>
      <point x="1026" y="178"/>
      <point x="1026" y="502" type="curve"/>
      <point x="974" y="502" type="line"/>
      <point x="974" y="304"/>
      <point x="848" y="188"/>
      <point x="680" y="188" type="curve" smooth="yes"/>
      <point x="482" y="188"/>
      <point x="348" y="370"/>
      <point x="348" y="642" type="curve" smooth="yes"/>
      <point x="348" y="932"/>
      <point x="504" y="1110"/>
      <point x="696" y="1110" type="curve" smooth="yes"/>
      <point x="808" y="1110"/>
      <point x="896" y="1050"/>
      <point x="964" y="940" type="curve"/>
      <point x="1206" y="996" type="line"/>
      <point x="1114" y="1222"/>
      <point x="950" y="1324"/>
      <point x="708" y="1324" type="curve" smooth="yes"/>
      <point x="358" y="1324"/>
      <point x="94" y="1066"/>
      <point x="94" y="642" type="curve" smooth="yes"/>
      <point x="94" y="240"/>
      <point x="342" y="-28"/>
    </contour>
    <contour>
      <point x="1008" y="0" type="line"/>
      <point x="1200" y="0" type="line"/>
      <point x="1200" y="666" type="line"/>
      <point x="682" y="666" type="line"/>
      <point x="682" y="516" type="line"/>
      <point x="974" y="510" type="line"/>
      <point x="974" y="286" type="line"/>
    </contour>
  </outline>
</glyph>
<glyph name="H" format="2">
  <advance width="1411"/>
  <unicode hex="0048"/>
  <outline>
    <contour>
      <point x="186" y="1298" type="line"/>
      <point x="186" y="0" type="line"/>
      <point x="422" y="0" type="line"/>
      <point x="422" y="550" type="line"/>
      <point x="988" y="550" type="line"/>
      <point x="988" y="0" type="line"/>
      <point x="1224" y="0" type="line"/>
      <point x="1224" y="1298" type="line"/>
      <point x="988" y="1298" type="line"/>
      <point x="988" y="756" type="line"/>
      <point x="422" y="756" type="line"/>
      <point x="422" y="1298" type="line"/>
    </contour>
  </outline>
</glyph>
<glyph name="I" format="2">
  <advance width="609"/>
  <unicode hex="0049"/>
  <anchor x="304" y="1324" name="above"/>
  <outline>
    <contour>
      <point x="186" y="0" type="line"/>
      <point x="422" y="0" type="line"/>
      <point x="422" y="1298" type="line"/>
      <point x="186" y="1298" type="line"/>
    </contour>
  </outline>
</glyph>
<glyph name="J" format="2">
  <advance width="887"/>
  <unicode hex="004A"/>
  <outline>
    <contour>
      <point x="32" y="54" type="line"/>
      <point x="126" y="6"/>
      <point x="232" y="-28"/>
      <point x="350" y="-28" type="curve" smooth="yes"/>
      <point x="574" y="-28"/>
      <point x="732" y="90"/>
      <point x="732" y="404" type="curve" smooth="yes"/>
      <point x="732" y="1298" type="line"/>
      <point x="494" y="1298" type="line"/>
      <point x="494" y="404" type="line" smooth="yes"/>
      <point x="494" y="268"/>
      <point x="444" y="202"/>
      <point x="330" y="202" type="curve" smooth="yes"/>
      <point x="242" y="202"/>
      <point x="138" y="228"/>
      <point x="32" y="290" type="curve"/>
    </contour>
  </outline>
</glyph>
<glyph name="K" format="2">
  <advance width="1308"/>
  <unicode hex="004B"/>
  <outline>
    <contour>
      <point x="936" y="1298" type="line"/>
      <point x="404" y="744" type="line"/>
      <point x="404" y="422" type="line"/>
      <point x="1260" y="1298" type="line"/>
    </contour>
    <contour>
      <point x="648" y="762" type="line"/>
      <point x="484" y="608" type="line"/>
      <point x="992" y="0" type="line"/>
      <point x="1296" y="0" type="line"/>
    </contour>
    <contour>
      <point x="186" y="1298" type="line"/>
      <point x="186" y="0" type="line"/>
      <point x="424" y="0" type="line"/>
      <point x="424" y="1298" type="line"/>
    </contour>
  </outline>
</glyph>
<glyph name="L" format="2">
  <advance width="988"/>
  <unicode hex="004C"/>
  <outline>
    <contour>
      <point x="422" y="1298" type="line"/>
      <point x="186" y="1298" type="line"/>
      <point x="186" y="0" type="line"/>
      <point x="956" y="0" type="line"/>
      <point x="956" y="206" type="line"/>
      <point x="422" y="206" type="line"/>
    </contour>
  </outline>
</glyph>
<glyph name="M" format="2">
  <advance width="1749"/>
  <unicode hex="004D"/>
  <outline>
    <contour>
      <point x="186" y="1298" type="line"/>
      <point x="186" y="0" type="line"/>
      <point x="422" y="0" type="line"/>
      <point x="422" y="1022" type="line"/>
      <point x="400" y="1022" type="line"/>
      <point x="802" y="142" type="line"/>
      <point x="956" y="142" type="line"/>
      <point x="1360" y="1026" type="line"/>
      <point x="1324" y="1026" type="line"/>
      <point x="1324" y="0" type="line"/>
      <point x="1562" y="0" type="line"/>
      <point x="1562" y="1298" type="line"/>
      <point x="1236" y="1298" type="line"/>
      <point x="870" y="504" type="line"/>
      <point x="890" y="504" type="line"/>
      <point x="524" y="1298" type="line"/>
    </contour>
  </outline>
</glyph>
<glyph name="N" format="2">
  <advance width="1434"/>
  <unicode hex="004E"/>
  <anchor x="714" y="1324" name="above"/>
  <outline>
    <contour>
      <point x="182" y="1298" type="line"/>
      <point x="182" y="0" type="line"/>
      <point x="418" y="0" type="line"/>
      <point x="418" y="982" type="line"/>
      <point x="380" y="982" type="line"/>
      <point x="1008" y="0" type="line"/>
      <point x="1248" y="0" type="line"/>
      <point x="1248" y="1298" type="line"/>
      <point x="1012" y="1298" type="line"/>
      <point x="1012" y="372" type="line"/>
      <point x="1030" y="372" type="line"/>
      <point x="440" y="1298" type="line"/>
    </contour>
  </outline>
</glyph>
<glyph name="O" format="2">
  <advance width="1365"/>
  <unicode hex="004F"/>
  <anchor x="682" y="1324" name="above"/>
  <outline>
    <contour>
      <point x="682" y="-28" type="curve" smooth="yes"/>
      <point x="1030" y="-28"/>
      <point x="1272" y="196"/>
      <point x="1272" y="650" type="curve" smooth="yes"/>
      <point x="1272" y="1096"/>
      <point x="1030" y="1324"/>
      <point x="682" y="1324" type="curve" smooth="yes"/>
      <point x="336" y="1324"/>
      <point x="94" y="1106"/>
      <point x="94" y="650" type="curve" smooth="yes"/>
      <point x="94" y="202"/>
      <point x="336" y="-28"/>
    </contour>
    <contour>
      <point x="682" y="186" type="curve" smooth="yes"/>
      <point x="474" y="186"/>
      <point x="338" y="350"/>
      <point x="338" y="650" type="curve" smooth="yes"/>
      <point x="338" y="942"/>
      <point x="474" y="1112"/>
      <point x="682" y="1112" type="curve" smooth="yes"/>
      <point x="894" y="1112"/>
      <point x="1028" y="942"/>
      <point x="1028" y="652" type="curve" smooth="yes"/>
      <point x="1028" y="350"/>
      <point x="894" y="186"/>
    </contour>
  </outline>
</glyph>
<glyph name="P" format="2">
  <advance width="1161"/>
  <unicode hex="0050"/>
  <outline>
    <contour>
      <point x="180" y="0" type="line"/>
      <point x="418" y="0" type="line"/>
      <point x="418" y="472" type="line"/>
      <point x="638" y="472" type="line" smooth="yes"/>
      <point x="930" y="472"/>
      <point x="1102" y="622"/>
      <point x="1102" y="884" type="curve" smooth="yes"/>
      <point x="1102" y="1148"/>
      <point x="930" y="1298"/>
      <point x="638" y="1298" type="curve" smooth="yes"/>
      <point x="180" y="1298" type="line"/>
    </contour>
    <contour>
      <point x="418" y="678" type="line"/>
      <point x="418" y="1094" type="line"/>
      <point x="638" y="1094" type="line" smooth="yes"/>
      <point x="784" y="1094"/>
      <point x="860" y="1006"/>
      <point x="860" y="884" type="curve" smooth="yes"/>
      <point x="860" y="764"/>
      <point x="784" y="678"/>
      <point x="638" y="678" type="curve" smooth="yes"/>
    </contour>
  </outline>
</glyph>
<glyph name="Q" format="2">
  <advance width="1372"/>
  <unicode hex="0051"/>
  <outline>
    <contour>
      <point x="682" y="-28" type="curve" smooth="yes"/>
      <point x="1030" y="-28"/>
      <point x="1272" y="196"/>
      <point x="1272" y="650" type="curve" smooth="yes"/>
      <point x="1272" y="1096"/>
      <point x="1030" y="1324"/>
      <point x="682" y="1324" type="curve" smooth="yes"/>
      <point x="336" y="1324"/>
      <point x="94" y="1106"/>
      <point x="94" y="650" type="curve" smooth="yes"/>
      <point x="94" y="202"/>
      <point x="336" y="-28"/>
    </contour>
    <contour>
      <point x="1080" y="-360" type="curve" smooth="yes"/>
      <point x="1138" y="-360"/>
      <point x="1194" y="-350"/>
      <point x="1256" y="-324" type="curve"/>
      <point x="1256" y="-80" type="line"/>
      <point x="1188" y="-108"/>
      <point x="1128" y="-126"/>
      <point x="1062" y="-126" type="curve" smooth="yes"/>
      <point x="1010" y="-124"/>
      <point x="958" y="-104"/>
      <point x="920" y="-48" type="curve" smooth="yes"/>
      <point x="804" y="132" type="line"/>
      <point x="616" y="44" type="line"/>
      <point x="750" y="-158" type="line" smooth="yes"/>
      <point x="834" y="-286"/>
      <point x="948" y="-360"/>
    </contour>
    <contour>
      <point x="682" y="186" type="curve" smooth="yes"/>
      <point x="474" y="186"/>
      <point x="338" y="350"/>
      <point x="338" y="650" type="curve" smooth="yes"/>
      <point x="338" y="942"/>
      <point x="474" y="1112"/>
      <point x="682" y="1112" type="curve" smooth="yes"/>
      <point x="894" y="1112"/>
      <point x="1028" y="942"/>
      <point x="1028" y="652" type="curve" smooth="yes"/>
      <point x="1028" y="350"/>
      <point x="894" y="186"/>
    </contour>
  </outline>
</glyph>
<glyph name="R" format="2">
  <advance width="1287"/>
  <unicode hex="0052"/>
  <outline>
    <contour>
      <point x="186" y="0" type="line"/>
      <point x="422" y="0" type="line"/>
      <point x="422" y="506" type="line"/>
      <point x="666" y="506" type="line" smooth="yes"/>
      <point x="976" y="506"/>
      <point x="1148" y="664"/>
      <point x="1148" y="900" type="curve" smooth="yes"/>
      <point x="1148" y="1140"/>
      <point x="976" y="1298"/>
      <point x="666" y="1298" type="curve" smooth="yes"/>
      <point x="186" y="1298" type="line"/>
    </contour>
    <contour>
      <point x="888" y="0" type="line"/>
      <point x="1196" y="0" type="line"/>
      <point x="796" y="608" type="line"/>
      <point x="544" y="608" type="line"/>
    </contour>
    <contour>
      <point x="422" y="664" type="line"/>
      <point x="422" y="1094" type="line"/>
      <point x="666" y="1094" type="line" smooth="yes"/>
      <point x="824" y="1094"/>
      <point x="906" y="1008"/>
      <point x="906" y="878" type="curve" smooth="yes"/>
      <point x="906" y="752"/>
      <point x="816" y="664"/>
      <point x="642" y="664" type="curve" smooth="yes"/>
    </contour>
  </outline>
</glyph>
<glyph name="S" format="2">
  <advance width="1275"/>
  <unicode hex="0053"/>
  <outline>
    <contour>
      <point x="638" y="-28" type="curve" smooth="yes"/>
      <point x="962" y="-28"/>
      <point x="1144" y="120"/>
      <point x="1144" y="354" type="curve" smooth="yes"/>
      <point x="1144" y="524"/>
      <point x="1038" y="634"/>
      <point x="846" y="708" type="curve" smooth="yes"/>
      <point x="562" y="818" type="line" smooth="yes"/>
      <point x="460" y="856"/>
      <point x="412" y="892"/>
      <point x="412" y="964" type="curve" smooth="yes"/>
      <point x="412" y="1048"/>
      <point x="494" y="1110"/>
      <point x="628" y="1110" type="curve" smooth="yes"/>
      <point x="778" y="1110"/>
      <point x="850" y="1042"/>
      <point x="868" y="940" type="curve"/>
      <point x="1100" y="940" type="line"/>
      <point x="1078" y="1180"/>
      <point x="918" y="1324"/>
      <point x="628" y="1324" type="curve" smooth="yes"/>
      <point x="330" y="1324"/>
      <point x="154" y="1180"/>
      <point x="154" y="970" type="curve" smooth="yes"/>
      <point x="154" y="786"/>
      <point x="264" y="696"/>
      <point x="464" y="618" type="curve" smooth="yes"/>
      <point x="720" y="516" type="line" smooth="yes"/>
      <point x="836" y="474"/>
      <point x="886" y="432"/>
      <point x="886" y="346" type="curve" smooth="yes"/>
      <point x="886" y="248"/>
      <point x="780" y="188"/>
      <point x="636" y="188" type="curve" smooth="yes"/>
      <point x="486" y="188"/>
      <point x="362" y="256"/>
      <point x="362" y="406" type="curve"/>
      <point x="130" y="406" type="line"/>
      <point x="140" y="110"/>
      <point x="368" y="-28"/>
    </contour>
  </outline>
</glyph>
<glyph name="T" format="2">
  <advance width="1063"/>
  <unicode hex="0054"/>
  <outline>
    <contour>
      <point x="12" y="1094" type="line"/>
      <point x="414" y="1094" type="line"/>
      <point x="414" y="0" type="line"/>
      <point x="650" y="0" type="line"/>
      <point x="650" y="1094" type="line"/>
      <point x="1052" y="1094" type="line"/>
      <point x="1052" y="1298" type="line"/>
      <point x="12" y="1298" type="line"/>
    </contour>
  </outline>
</glyph>
<glyph name="U" format="2">
  <advance width="1380"/>
  <unicode hex="0055"/>
  <anchor x="692" y="1324" name="above"/>
  <outline>
    <contour>
      <point x="166" y="1298" type="line"/>
      <point x="166" y="490" type="line" smooth="yes"/>
      <point x="166" y="162"/>
      <point x="362" y="-28"/>
      <point x="692" y="-28" type="curve" smooth="yes"/>
      <point x="1022" y="-28"/>
      <point x="1218" y="162"/>
      <point x="1218" y="490" type="curve" smooth="yes"/>
      <point x="1218" y="1298" type="line"/>
      <point x="982" y="1298" type="line"/>
      <point x="982" y="490" type="line" smooth="yes"/>
      <point x="982" y="276"/>
      <point x="862" y="188"/>
      <point x="692" y="188" type="curve" smooth="yes"/>
      <point x="522" y="188"/>
      <point x="402" y="276"/>
      <point x="402" y="490" type="curve" smooth="yes"/>
      <point x="402" y="1298" type="line"/>
    </contour>
  </outline>
</glyph>
<glyph name="V" format="2">
  <advance width="1205"/>
  <unicode hex="0056"/>
  <outline>
    <contour>
      <point x="590" y="258" type="line"/>
      <point x="614" y="258" type="line"/>
      <point x="286" y="1298" type="line"/>
      <point x="36" y="1298" type="line"/>
      <point x="476" y="0" type="line"/>
      <point x="724" y="0" type="line"/>
      <point x="1170" y="1298" type="line"/>
      <point x="922" y="1298" type="line"/>
    </contour>
  </outline>
</glyph>
<glyph name="W" format="2">
  <advance width="1893"/>
  <unicode hex="0057"/>
  <outline>
    <contour>
      <point x="20" y="1298" type="line"/>
      <point x="444" y="0" type="line"/>
      <point x="692" y="0" type="line"/>
      <point x="946" y="766" type="line"/>
      <point x="924" y="766" type="line"/>
      <point x="1178" y="0" type="line"/>
      <point x="1426" y="0" type="line"/>
      <point x="1872" y="1298" type="line"/>
      <point x="1606" y="1298" type="line"/>
      <point x="1276" y="224" type="line"/>
      <point x="1330" y="224" type="line"/>
      <point x="1008" y="1212" type="line"/>
      <point x="848" y="1212" type="line"/>
      <point x="538" y="208" type="line"/>
      <point x="598" y="208" type="line"/>
      <point x="284" y="1298" type="line"/>
    </contour>
  </outline>
</glyph>
<glyph name="X" format="2">
  <advance width="1367"/>
  <unicode hex="0058"/>
  <outline>
    <contour>
      <point x="68" y="0" type="line"/>
      <point x="354" y="0" type="line"/>
      <point x="660" y="462" type="line"/>
      <point x="1002" y="0" type="line"/>
      <point x="1298" y="0" type="line"/>
      <point x="816" y="650" type="line"/>
      <point x="1254" y="1298" type="line"/>
      <point x="968" y="1298" type="line"/>
      <point x="684" y="830" type="line"/>
      <point x="356" y="1298" type="line"/>
      <point x="66" y="1298" type="line"/>
      <point x="526" y="646" type="line"/>
    </contour>
  </outline>
</glyph>
<glyph name="Z" format="2">
  <advance width="1257"/>
  <unicode hex="005A"/>
  <outline>
    <contour>
      <point x="146" y="0" type="line"/>
      <point x="1128" y="0" type="line"/>
      <point x="1128" y="216" type="line"/>
      <point x="414" y="218" type="line"/>
      <point x="420" y="188" type="line"/>
      <point x="1128" y="1096" type="line"/>
      <point x="1128" y="1298" type="line"/>
      <point x="146" y="1298" type="line"/>
      <point x="146" y="1082" type="line"/>
      <point x="900" y="1080" type="line"/>
      <point x="900" y="1166" type="line"/>
      <point x="146" y="204" type="line"/>
    </contour>
  </outline>
</glyph>
<glyph name="bracketleft" format="2">
  <advance width="704"/>
  <unicode hex="005B"/>
  <outline>
    <contour>
      <point x="186" y="-282" type="line"/>
      <point x="680" y="-282" type="line"/>
      <point x="680" y="-68" type="line"/>
      <point x="422" y="-68" type="line"/>
      <point x="422" y="1366" type="line"/>
      <point x="680" y="1366" type="line"/>
      <point x="680" y="1580" type="line"/>
      <point x="186" y="1580" type="line"/>
    </contour>
  </outline>
</glyph>
<glyph name="asciicircum" format="2">
  <advance width="1054"/>
  <unicode hex="005E"/>
  <outline>
    <contour>
      <point x="40" y="436" type="line"/>
      <point x="300" y="436" type="line"/>
      <point x="576" y="1026" type="line"/>
      <point x="486" y="1026" type="line"/>
      <point x="762" y="436" type="line"/>
      <point x="1022" y="436" type="line"/>
      <point x="626" y="1206" type="line"/>
      <point x="436" y="1206" type="line"/>
    </contour>
  </outline>
</glyph>
<glyph name="grave" format="2">
  <advance width="713"/>
  <unicode hex="0060"/>
  <anchor x="356" y="1324" name="_above"/>
  <outline>
    <contour>
      <point x="48" y="1596" type="line"/>
      <point x="606" y="1388" type="line"/>
      <point x="666" y="1536" type="line"/>
      <point x="132" y="1800" type="line"/>
    </contour>
  </outline>
</glyph>
<glyph name="a" format="2">
  <advance width="1170"/>
  <unicode hex="0061"/>
  <anchor x="596" y="1052" name="above"/>
  <outline>
    <contour>
      <point x="804" y="0" type="line"/>
      <point x="1010" y="0" type="line"/>
      <point x="1010" y="618" type="line" smooth="yes"/>
      <point x="1010" y="880"/>
      <point x="844" y="998"/>
      <point x="592" y="998" type="curve" smooth="yes"/>
      <point x="314" y="998"/>
      <point x="148" y="904"/>
      <point x="148" y="684" type="curve"/>
      <point x="406" y="684" type="line"/>
      <point x="406" y="774"/>
      <point x="478" y="826"/>
      <point x="592" y="826" type="curve" smooth="yes"/>
      <point x="724" y="826"/>
      <point x="774" y="762"/>
      <point x="774" y="626" type="curve" smooth="yes"/>
      <point x="774" y="236" type="line"/>
    </contour>
    <contour>
      <point x="486" y="-28" type="curve" smooth="yes"/>
      <point x="712" y="-28"/>
      <point x="830" y="150"/>
      <point x="830" y="360" type="curve"/>
      <point x="774" y="360" type="line"/>
      <point x="774" y="264"/>
      <point x="692" y="152"/>
      <point x="546" y="152" type="curve" smooth="yes"/>
      <point x="418" y="152"/>
      <point x="362" y="212"/>
      <point x="362" y="284" type="curve" smooth="yes"/>
      <point x="362" y="382"/>
      <point x="442" y="420"/>
      <point x="554" y="420" type="curve" smooth="yes"/>
      <point x="630" y="420"/>
      <point x="722" y="406"/>
      <point x="796" y="382" type="curve"/>
      <point x="796" y="520" type="line"/>
      <point x="702" y="546"/>
      <point x="612" y="564"/>
      <point x="506" y="564" type="curve" smooth="yes"/>
      <point x="264" y="564"/>
      <point x="110" y="468"/>
      <point x="110" y="284" type="curve" smooth="yes"/>
      <point x="110" y="118"/>
      <point x="236" y="-28"/>
    </contour>
  </outline>
</glyph>
<glyph name="b" format="2">
  <advance width="1228"/>
  <unicode hex="0062"/>
  <outline>
    <contour>
      <point x="682" y="-28" type="curve" smooth="yes"/>
      <point x="928" y="-28"/>
      <point x="1126" y="178"/>
      <point x="1126" y="490" type="curve" smooth="yes"/>
      <point x="1126" y="798"/>
      <point x="936" y="998"/>
      <point x="700" y="998" type="curve" smooth="yes"/>
      <point x="484" y="998"/>
      <point x="350" y="840"/>
      <point x="350" y="546" type="curve"/>
      <point x="422" y="546" type="line"/>
      <point x="422" y="698"/>
      <point x="528" y="786"/>
      <point x="646" y="786" type="curve" smooth="yes"/>
      <point x="788" y="786"/>
      <point x="888" y="668"/>
      <point x="888" y="490" type="curve" smooth="yes"/>
      <point x="888" y="306"/>
      <point x="786" y="186"/>
      <point x="648" y="186" type="curve" smooth="yes"/>
      <point x="536" y="186"/>
      <point x="422" y="284"/>
      <point x="422" y="430" type="curve"/>
      <point x="350" y="430" type="line"/>
      <point x="350" y="124"/>
      <point x="500" y="-28"/>
    </contour>
    <contour>
      <point x="186" y="0" type="line"/>
      <point x="340" y="0" type="line"/>
      <point x="422" y="240" type="line"/>
      <point x="422" y="1372" type="line"/>
      <point x="186" y="1372" type="line"/>
    </contour>
  </outline>
</glyph>
<glyph name="c" format="2">
  <advance width="1059"/>
  <unicode hex="0063"/>
  <outline>
    <contour>
      <point x="554" y="-28" type="curve" smooth="yes"/>
      <point x="818" y="-28"/>
      <point x="962" y="140"/>
      <point x="962" y="346" type="curve"/>
      <point x="724" y="346" type="line"/>
      <point x="724" y="248"/>
      <point x="672" y="186"/>
      <point x="552" y="186" type="curve" smooth="yes"/>
      <point x="430" y="186"/>
      <point x="332" y="286"/>
      <point x="332" y="486" type="curve" smooth="yes"/>
      <point x="332" y="696"/>
      <point x="438" y="786"/>
      <point x="552" y="786" type="curve" smooth="yes"/>
      <point x="644" y="786"/>
      <point x="702" y="722"/>
      <point x="724" y="638" type="curve"/>
      <point x="962" y="644" type="line"/>
      <point x="942" y="816"/>
      <point x="806" y="998"/>
      <point x="554" y="998" type="curve" smooth="yes"/>
      <point x="310" y="998"/>
      <point x="94" y="816"/>
      <point x="94" y="486" type="curve" smooth="yes"/>
      <point x="94" y="174"/>
      <point x="310" y="-28"/>
    </contour>
  </outline>
</glyph>
<glyph name="d" format="2">
  <advance width="1228"/>
  <unicode hex="0064"/>
  <outline>
    <contour>
      <point x="544" y="-28" type="curve" smooth="yes"/>
      <point x="726" y="-28"/>
      <point x="878" y="124"/>
      <point x="878" y="430" type="curve"/>
      <point x="804" y="430" type="line"/>
      <point x="804" y="284"/>
      <point x="692" y="186"/>
      <point x="580" y="186" type="curve" smooth="yes"/>
      <point x="442" y="186"/>
      <point x="340" y="306"/>
      <point x="340" y="490" type="curve" smooth="yes"/>
      <point x="340" y="668"/>
      <point x="440" y="786"/>
      <point x="582" y="786" type="curve" smooth="yes"/>
      <point x="700" y="786"/>
      <point x="804" y="698"/>
      <point x="804" y="546" type="curve"/>
      <point x="878" y="546" type="line"/>
      <point x="878" y="840"/>
      <point x="744" y="998"/>
      <point x="528" y="998" type="curve" smooth="yes"/>
      <point x="292" y="998"/>
      <point x="102" y="798"/>
      <point x="102" y="490" type="curve" smooth="yes"/>
      <point x="102" y="178"/>
      <point x="300" y="-28"/>
    </contour>
    <contour>
      <point x="848" y="0" type="line"/>
      <point x="1042" y="0" type="line"/>
      <point x="1042" y="1372" type="line"/>
      <point x="804" y="1372" type="line"/>
      <point x="804" y="240" type="line"/>
    </contour>
  </outline>
</glyph>
<glyph name="e" format="2">
  <advance width="1060"/>
  <unicode hex="0065"/>
  <anchor x="532" y="1052" name="above"/>
  <outline>
    <contour>
      <point x="548" y="-28" type="curve" smooth="yes"/>
      <point x="772" y="-28"/>
      <point x="932" y="102"/>
      <point x="962" y="290" type="curve"/>
      <point x="724" y="290" type="line"/>
      <point x="706" y="204"/>
      <point x="640" y="162"/>
      <point x="548" y="162" type="curve" smooth="yes"/>
      <point x="400" y="162"/>
      <point x="328" y="278"/>
      <point x="328" y="442" type="curve" smooth="yes"/>
      <point x="328" y="536" type="line" smooth="yes"/>
      <point x="328" y="692"/>
      <point x="408" y="810"/>
      <point x="552" y="810" type="curve" smooth="yes"/>
      <point x="711" y="810"/>
      <point x="751" y="664"/>
      <point x="743" y="538" type="curve"/>
      <point x="789" y="568" type="line"/>
      <point x="282" y="568" type="line"/>
      <point x="282" y="440" type="line"/>
      <point x="956" y="440" type="line"/>
      <point x="1000" y="724"/>
      <point x="858" y="998"/>
      <point x="548" y="998" type="curve" smooth="yes"/>
      <point x="298" y="998"/>
      <point x="94" y="806"/>
      <point x="94" y="486" type="curve" smooth="yes"/>
      <point x="94" y="176"/>
      <point x="300" y="-28"/>
    </contour>
  </outline>
</glyph>
<glyph name="f" format="2">
  <advance width="735"/>
  <unicode hex="0066"/>
  <outline>
    <contour>
      <point x="242" y="0" type="line"/>
      <point x="480" y="0" type="line"/>
      <point x="480" y="1084" type="line" smooth="yes"/>
      <point x="480" y="1174"/>
      <point x="534" y="1202"/>
      <point x="590" y="1202" type="curve" smooth="yes"/>
      <point x="624" y="1202"/>
      <point x="660" y="1194"/>
      <point x="694" y="1182" type="curve"/>
      <point x="740" y="1364" type="line"/>
      <point x="674" y="1378"/>
      <point x="602" y="1388"/>
      <point x="538" y="1388" type="curve" smooth="yes"/>
      <point x="380" y="1388"/>
      <point x="242" y="1298"/>
      <point x="242" y="1088" type="curve" smooth="yes"/>
    </contour>
    <contour>
      <point x="98" y="814" type="line"/>
      <point x="658" y="814" type="line"/>
      <point x="658" y="970" type="line"/>
      <point x="98" y="970" type="line"/>
    </contour>
  </outline>
</glyph>
<glyph name="g" format="2">
  <advance width="1164"/>
  <unicode hex="0067"/>
  <outline>
    <contour>
      <point x="560" y="-502" type="curve" smooth="yes"/>
      <point x="906" y="-502"/>
      <point x="1124" y="-298"/>
      <point x="1124" y="-88" type="curve" smooth="yes"/>
      <point x="1124" y="70"/>
      <point x="998" y="144"/>
      <point x="792" y="144" type="curve" smooth="yes"/>
      <point x="466" y="144" type="line" smooth="yes"/>
      <point x="354" y="144"/>
      <point x="314" y="180"/>
      <point x="314" y="234" type="curve" smooth="yes"/>
      <point x="314" y="300"/>
      <point x="372" y="334"/>
      <point x="430" y="334" type="curve"/>
      <point x="370" y="412" type="line"/>
      <point x="224" y="412"/>
      <point x="112" y="336"/>
      <point x="112" y="214" type="curve" smooth="yes"/>
      <point x="112" y="82"/>
      <point x="270" y="-22"/>
      <point x="466" y="-22" type="curve" smooth="yes"/>
      <point x="792" y="-22" type="line" smooth="yes"/>
      <point x="858" y="-22"/>
      <point x="890" y="-56"/>
      <point x="890" y="-104" type="curve" smooth="yes"/>
      <point x="890" y="-212"/>
      <point x="762" y="-314"/>
      <point x="560" y="-314" type="curve" smooth="yes"/>
      <point x="374" y="-314"/>
      <point x="262" y="-254"/>
      <point x="262" y="-162" type="curve" smooth="yes"/>
      <point x="262" y="-74"/>
      <point x="336" y="-22"/>
      <point x="466" y="-22" type="curve"/>
      <point x="294" y="42" type="line"/>
      <point x="142" y="42"/>
      <point x="30" y="-36"/>
      <point x="30" y="-174" type="curve" smooth="yes"/>
      <point x="30" y="-348"/>
      <point x="226" y="-502"/>
    </contour>
    <contour>
      <point x="572" y="300" type="curve" smooth="yes"/>
      <point x="796" y="300"/>
      <point x="990" y="438"/>
      <point x="990" y="648" type="curve" smooth="yes"/>
      <point x="990" y="862"/>
      <point x="796" y="998"/>
      <point x="572" y="998" type="curve" smooth="yes"/>
      <point x="342" y="998"/>
      <point x="152" y="862"/>
      <point x="152" y="648" type="curve" smooth="yes"/>
      <point x="152" y="438"/>
      <point x="342" y="300"/>
    </contour>
    <contour>
      <point x="574" y="464" type="curve" smooth="yes"/>
      <point x="452" y="464"/>
      <point x="386" y="544"/>
      <point x="386" y="648" type="curve" smooth="yes"/>
      <point x="386" y="760"/>
      <point x="452" y="834"/>
      <point x="572" y="834" type="curve" smooth="yes"/>
      <point x="696" y="834"/>
      <point x="758" y="760"/>
      <point x="758" y="648" type="curve" smooth="yes"/>
      <point x="758" y="544"/>
      <point x="696" y="464"/>
    </contour>
    <contour>
      <point x="916" y="842" type="line"/>
      <point x="916" y="928"/>
      <point x="978" y="968"/>
      <point x="1094" y="968" type="curve"/>
      <point x="1106" y="1194" type="line"/>
      <point x="942" y="1194"/>
      <point x="808" y="1078"/>
      <point x="808" y="904" type="curve"/>
    </contour>
  </outline>
</glyph>
<glyph name="h" format="2">
  <advance width="1246"/>
  <unicode hex="0068"/>
  <outline>
    <contour>
      <point x="852" y="0" type="line"/>
      <point x="1088" y="0" type="line"/>
      <point x="1088" y="568" type="line" smooth="yes"/>
      <point x="1088" y="826"/>
      <point x="966" y="998"/>
      <point x="726" y="998" type="curve" smooth="yes"/>
      <point x="494" y="998"/>
      <point x="344" y="812"/>
      <point x="344" y="434" type="curve"/>
      <point x="422" y="434" type="line"/>
      <point x="422" y="668"/>
      <point x="522" y="786"/>
      <point x="664" y="786" type="curve" smooth="yes"/>
      <point x="776" y="786"/>
      <point x="852" y="712"/>
      <point x="852" y="568" type="curve" smooth="yes"/>
    </contour>
    <contour>
      <point x="186" y="0" type="line"/>
      <point x="422" y="0" type="line"/>
      <point x="422" y="1372" type="line"/>
      <point x="186" y="1372" type="line"/>
    </contour>
  </outline>
</glyph>
<glyph name="i" format="2">
  <advance width="656"/>
  <unicode hex="0069"/>
  <outline>
    <contour>
      <point x="206" y="0" type="line"/>
      <point x="442" y="0" type="line"/>
      <point x="442" y="974" type="line"/>
      <point x="206" y="974" type="line"/>
    </contour>
    <contour>
      <point x="324" y="1148" type="curve" smooth="yes"/>
      <point x="414" y="1148"/>
      <point x="470" y="1200"/>
      <point x="470" y="1286" type="curve" smooth="yes"/>
      <point x="470" y="1370"/>
      <point x="414" y="1424"/>
      <point x="324" y="1424" type="curve" smooth="yes"/>
      <point x="232" y="1424"/>
      <point x="178" y="1370"/>
      <point x="178" y="1286" type="curve" smooth="yes"/>
      <point x="178" y="1200"/>
      <point x="232" y="1148"/>
    </contour>
  </outline>
</glyph>
<glyph name="j" format="2">
  <advance width="670"/>
  <unicode hex="006A"/>
  <outline>
    <contour>
      <point x="128" y="-502" type="curve" smooth="yes"/>
      <point x="334" y="-502"/>
      <point x="456" y="-394"/>
      <point x="456" y="-116" type="curve" smooth="yes"/>
      <point x="456" y="974" type="line"/>
      <point x="220" y="974" type="line"/>
      <point x="220" y="-112" type="line"/>
      <point x="220" y="-246"/>
      <point x="168" y="-296"/>
      <point x="70" y="-296" type="curve" smooth="yes"/>
      <point x="-2" y="-296"/>
      <point x="-80" y="-270"/>
      <point x="-148" y="-236" type="curve"/>
      <point x="-152" y="-440" type="line"/>
      <point x="-60" y="-478"/>
      <point x="24" y="-502"/>
    </contour>
    <contour>
      <point x="336" y="1148" type="curve" smooth="yes"/>
      <point x="426" y="1148"/>
      <point x="482" y="1200"/>
      <point x="482" y="1286" type="curve" smooth="yes"/>
      <point x="482" y="1370"/>
      <point x="426" y="1424"/>
      <point x="336" y="1424" type="curve" smooth="yes"/>
      <point x="246" y="1424"/>
      <point x="190" y="1370"/>
      <point x="190" y="1286" type="curve" smooth="yes"/>
      <point x="190" y="1200"/>
      <point x="246" y="1148"/>
    </contour>
  </outline>
</glyph>
<glyph name="k" format="2">
  <advance width="1183"/>
  <unicode hex="006B"/>
  <outline>
    <contour>
      <point x="186" y="0" type="line"/>
      <point x="422" y="0" type="line"/>
      <point x="422" y="1372" type="line"/>
      <point x="186" y="1372" type="line"/>
    </contour>
    <contour>
      <point x="390" y="602" type="line"/>
      <point x="390" y="358" type="line"/>
      <point x="1126" y="970" type="line"/>
      <point x="806" y="970" type="line"/>
    </contour>
    <contour>
      <point x="862" y="0" type="line"/>
      <point x="1150" y="0" type="line"/>
      <point x="652" y="672" type="line"/>
      <point x="428" y="618" type="line"/>
    </contour>
  </outline>
</glyph>
<glyph name="l" format="2">
  <advance width="609"/>
  <unicode hex="006C"/>
  <outline>
    <contour>
      <point x="186" y="0" type="line"/>
      <point x="422" y="0" type="line"/>
      <point x="422" y="1372" type="line"/>
      <point x="186" y="1372" type="line"/>
    </contour>
  </outline>
</glyph>
<glyph name="m" format="2">
  <advance width="1898"/>
  <unicode hex="006D"/>
  <outline>
    <contour>
      <point x="1504" y="0" type="line"/>
      <point x="1742" y="0" type="line"/>
      <point x="1742" y="568" type="line" smooth="yes"/>
      <point x="1742" y="826"/>
      <point x="1618" y="998"/>
      <point x="1380" y="998" type="curve" smooth="yes"/>
      <point x="1152" y="998"/>
      <point x="990" y="846"/>
      <point x="990" y="440" type="curve"/>
      <point x="1088" y="440" type="line"/>
      <point x="1088" y="672"/>
      <point x="1174" y="786"/>
      <point x="1316" y="786" type="curve" smooth="yes"/>
      <point x="1428" y="786"/>
      <point x="1504" y="712"/>
      <point x="1504" y="568" type="curve" smooth="yes"/>
    </contour>
    <contour>
      <point x="186" y="0" type="line"/>
      <point x="422" y="0" type="line"/>
      <point x="422" y="434" type="line" smooth="yes"/>
      <point x="422" y="668"/>
      <point x="522" y="786"/>
      <point x="664" y="786" type="curve" smooth="yes"/>
      <point x="776" y="786"/>
      <point x="852" y="712"/>
      <point x="852" y="568" type="curve" smooth="yes"/>
      <point x="852" y="0" type="line"/>
      <point x="1088" y="0" type="line"/>
      <point x="1088" y="568" type="line" smooth="yes"/>
      <point x="1088" y="826"/>
      <point x="966" y="998"/>
      <point x="726" y="998" type="curve" smooth="yes"/>
      <point x="590" y="998"/>
      <point x="482" y="932"/>
      <point x="418" y="804" type="curve"/>
      <point x="392" y="970" type="line"/>
      <point x="186" y="970" type="line"/>
    </contour>
  </outline>
</glyph>
<glyph name="n" format="2">
  <advance width="1246"/>
  <unicode hex="006E"/>
  <anchor x="628" y="1052" name="above"/>
  <outline>
    <contour>
      <point x="852" y="0" type="line"/>
      <point x="1088" y="0" type="line"/>
      <point x="1088" y="568" type="line" smooth="yes"/>
      <point x="1088" y="826"/>
      <point x="966" y="998"/>
      <point x="726" y="998" type="curve" smooth="yes"/>
      <point x="494" y="998"/>
      <point x="344" y="812"/>
      <point x="344" y="434" type="curve"/>
      <point x="422" y="434" type="line"/>
      <point x="422" y="668"/>
      <point x="522" y="786"/>
      <point x="664" y="786" type="curve" smooth="yes"/>
      <point x="776" y="786"/>
      <point x="852" y="712"/>
      <point x="852" y="568" type="curve" smooth="yes"/>
    </contour>
    <contour>
      <point x="186" y="0" type="line"/>
      <point x="422" y="0" type="line"/>
      <point x="422" y="778" type="line"/>
      <point x="392" y="970" type="line"/>
      <point x="186" y="970" type="line"/>
    </contour>
  </outline>
</glyph>
<glyph name="o" format="2">
  <advance width="1132"/>
  <unicode hex="006F"/>
  <anchor x="568" y="1052" name="above"/>
  <outline>
    <contour>
      <point x="568" y="-28" type="curve" smooth="yes"/>
      <point x="830" y="-28"/>
      <point x="1038" y="142"/>
      <point x="1038" y="484" type="curve" smooth="yes"/>
      <point x="1038" y="832"/>
      <point x="830" y="998"/>
      <point x="568" y="998" type="curve" smooth="yes"/>
      <point x="302" y="998"/>
      <point x="94" y="832"/>
      <point x="94" y="484" type="curve" smooth="yes"/>
      <point x="94" y="142"/>
      <point x="302" y="-28"/>
    </contour>
    <contour>
      <point x="560" y="178" type="curve" smooth="yes"/>
      <point x="420" y="178"/>
      <point x="332" y="282"/>
      <point x="332" y="484" type="curve" smooth="yes"/>
      <point x="332" y="690"/>
      <point x="434" y="794"/>
      <point x="576" y="794" type="curve" smooth="yes"/>
      <point x="716" y="794"/>
      <point x="802" y="690"/>
      <point x="802" y="484" type="curve" smooth="yes"/>
      <point x="802" y="282"/>
      <point x="700" y="178"/>
    </contour>
  </outline>
</glyph>
<glyph name="p" format="2">
  <advance width="1220"/>
  <unicode hex="0070"/>
  <outline>
    <contour>
      <point x="672" y="-28" type="curve" smooth="yes"/>
      <point x="910" y="-28"/>
      <point x="1126" y="162"/>
      <point x="1126" y="486" type="curve" smooth="yes"/>
      <point x="1126" y="808"/>
      <point x="912" y="998"/>
      <point x="682" y="998" type="curve" smooth="yes"/>
      <point x="494" y="998"/>
      <point x="336" y="862"/>
      <point x="336" y="556" type="curve"/>
      <point x="422" y="556" type="line"/>
      <point x="422" y="702"/>
      <point x="522" y="786"/>
      <point x="642" y="786" type="curve" smooth="yes"/>
      <point x="784" y="786"/>
      <point x="888" y="672"/>
      <point x="888" y="486" type="curve" smooth="yes"/>
      <point x="888" y="282"/>
      <point x="756" y="186"/>
      <point x="638" y="186" type="curve" smooth="yes"/>
      <point x="524" y="186"/>
      <point x="422" y="262"/>
      <point x="422" y="392" type="curve"/>
      <point x="336" y="392" type="line"/>
      <point x="336" y="110"/>
      <point x="458" y="-28"/>
    </contour>
    <contour>
      <point x="186" y="-474" type="line"/>
      <point x="422" y="-474" type="line"/>
      <point x="422" y="730" type="line"/>
      <point x="380" y="970" type="line"/>
      <point x="186" y="970" type="line"/>
    </contour>
  </outline>
</glyph>
<glyph name="q" format="2">
  <advance width="1220"/>
  <unicode hex="0071"/>
  <outline>
    <contour>
      <point x="548" y="-28" type="curve" smooth="yes"/>
      <point x="762" y="-28"/>
      <point x="842" y="144"/>
      <point x="842" y="392" type="curve"/>
      <point x="796" y="392" type="line"/>
      <point x="796" y="262"/>
      <point x="692" y="186"/>
      <point x="582" y="186" type="curve" smooth="yes"/>
      <point x="462" y="186"/>
      <point x="332" y="282"/>
      <point x="332" y="486" type="curve" smooth="yes"/>
      <point x="332" y="672"/>
      <point x="436" y="786"/>
      <point x="578" y="786" type="curve" smooth="yes"/>
      <point x="698" y="786"/>
      <point x="796" y="702"/>
      <point x="796" y="556" type="curve"/>
      <point x="884" y="556" type="line"/>
      <point x="884" y="862"/>
      <point x="724" y="998"/>
      <point x="536" y="998" type="curve" smooth="yes"/>
      <point x="308" y="998"/>
      <point x="94" y="808"/>
      <point x="94" y="486" type="curve" smooth="yes"/>
      <point x="94" y="162"/>
      <point x="310" y="-28"/>
    </contour>
    <contour>
      <point x="1098" y="-502" type="curve"/>
      <point x="1166" y="-330" type="line"/>
      <point x="1064" y="-298"/>
      <point x="1032" y="-268"/>
      <point x="1032" y="-150" type="curve" smooth="yes"/>
      <point x="1032" y="970" type="line"/>
      <point x="880" y="970" type="line"/>
      <point x="796" y="730" type="line"/>
      <point x="796" y="-132" type="line" smooth="yes"/>
      <point x="796" y="-338"/>
      <point x="880" y="-448"/>
    </contour>
  </outline>
</glyph>
<glyph name="r" format="2">
  <advance width="785"/>
  <unicode hex="0072"/>
  <outline>
    <contour>
      <point x="186" y="0" type="line"/>
      <point x="422" y="0" type="line"/>
      <point x="422" y="974" type="line"/>
      <point x="186" y="974" type="line"/>
    </contour>
    <contour>
      <point x="364" y="426" type="curve"/>
      <point x="422" y="426" type="line"/>
      <point x="422" y="640"/>
      <point x="502" y="754"/>
      <point x="658" y="754" type="curve" smooth="yes"/>
      <point x="690" y="754"/>
      <point x="732" y="748"/>
      <point x="768" y="740" type="curve"/>
      <point x="772" y="976" type="line"/>
      <point x="744" y="984"/>
      <point x="716" y="988"/>
      <point x="684" y="988" type="curve" smooth="yes"/>
      <point x="506" y="988"/>
      <point x="364" y="808"/>
    </contour>
  </outline>
</glyph>
<glyph name="s" format="2">
  <advance width="1055"/>
  <unicode hex="0073"/>
  <outline>
    <contour>
      <point x="548" y="-28" type="curve" smooth="yes"/>
      <point x="790" y="-28"/>
      <point x="956" y="118"/>
      <point x="956" y="272" type="curve" smooth="yes"/>
      <point x="956" y="394"/>
      <point x="870" y="470"/>
      <point x="720" y="522" type="curve" smooth="yes"/>
      <point x="490" y="608" type="line" smooth="yes"/>
      <point x="408" y="632"/>
      <point x="372" y="664"/>
      <point x="372" y="712" type="curve" smooth="yes"/>
      <point x="372" y="766"/>
      <point x="432" y="814"/>
      <point x="532" y="814" type="curve" smooth="yes"/>
      <point x="642" y="814"/>
      <point x="696" y="774"/>
      <point x="702" y="710" type="curve"/>
      <point x="924" y="710" type="line"/>
      <point x="920" y="876"/>
      <point x="780" y="998"/>
      <point x="532" y="998" type="curve" smooth="yes"/>
      <point x="282" y="998"/>
      <point x="122" y="888"/>
      <point x="122" y="724" type="curve" smooth="yes"/>
      <point x="122" y="600"/>
      <point x="206" y="510"/>
      <point x="358" y="456" type="curve" smooth="yes"/>
      <point x="570" y="380" type="line" smooth="yes"/>
      <point x="656" y="354"/>
      <point x="694" y="326"/>
      <point x="694" y="272" type="curve" smooth="yes"/>
      <point x="694" y="208"/>
      <point x="622" y="158"/>
      <point x="520" y="158" type="curve" smooth="yes"/>
      <point x="396" y="158"/>
      <point x="320" y="200"/>
      <point x="316" y="296" type="curve"/>
      <point x="98" y="296" type="line"/>
      <point x="100" y="92"/>
      <point x="268" y="-28"/>
    </contour>
  </outline>
</glyph>
<glyph name="t" format="2">
  <advance width="789"/>
  <unicode hex="0074"/>
  <outline>
    <contour>
      <point x="514" y="-28" type="curve" smooth="yes"/>
      <point x="592" y="-28"/>
      <point x="660" y="-6"/>
      <point x="734" y="24" type="curve"/>
      <point x="700" y="190" type="line"/>
      <point x="640" y="168"/>
      <point x="596" y="158"/>
      <point x="550" y="158" type="curve" smooth="yes"/>
      <point x="476" y="158"/>
      <point x="436" y="198"/>
      <point x="436" y="278" type="curve" smooth="yes"/>
      <point x="436" y="1228" type="line"/>
      <point x="200" y="1228" type="line"/>
      <point x="200" y="270" type="line" smooth="yes"/>
      <point x="200" y="66"/>
      <point x="342" y="-28"/>
    </contour>
    <contour>
      <point x="64" y="814" type="line"/>
      <point x="700" y="814" type="line"/>
      <point x="700" y="970" type="line"/>
      <point x="64" y="970" type="line"/>
    </contour>
  </outline>
</glyph>
<glyph name="u" format="2">
  <advance width="1254"/>
  <unicode hex="0075"/>
  <anchor x="626" y="1052" name="above"/>
  <outline>
    <contour>
      <point x="832" y="974" type="line"/>
      <point x="832" y="0" type="line"/>
      <point x="1068" y="0" type="line"/>
      <point x="1068" y="974" type="line"/>
    </contour>
    <contour>
      <point x="166" y="974" type="line"/>
      <point x="166" y="354" type="line" smooth="yes"/>
      <point x="166" y="86"/>
      <point x="328" y="-18"/>
      <point x="536" y="-18" type="curve" smooth="yes"/>
      <point x="748" y="-18"/>
      <point x="896" y="154"/>
      <point x="896" y="510" type="curve"/>
      <point x="832" y="510" type="line"/>
      <point x="832" y="298"/>
      <point x="718" y="188"/>
      <point x="578" y="188" type="curve" smooth="yes"/>
      <point x="468" y="188"/>
      <point x="402" y="252"/>
      <point x="402" y="378" type="curve" smooth="yes"/>
      <point x="402" y="974" type="line"/>
    </contour>
  </outline>
</glyph>
<glyph name="v" format="2">
  <advance width="1038"/>
  <unicode hex="0076"/>
  <outline>
    <contour>
      <point x="24" y="970" type="line"/>
      <point x="386" y="0" type="line"/>
      <point x="652" y="0" type="line"/>
      <point x="1014" y="970" type="line"/>
      <point x="742" y="970" type="line"/>
      <point x="510" y="202" type="line"/>
      <point x="528" y="202" type="line"/>
      <point x="296" y="970" type="line"/>
    </contour>
  </outline>
</glyph>
<glyph name="w" format="2">
  <advance width="1516"/>
  <unicode hex="0077"/>
  <outline>
    <contour>
      <point x="24" y="970" type="line"/>
      <point x="346" y="0" type="line"/>
      <point x="580" y="0" type="line"/>
      <point x="774" y="644" type="line"/>
      <point x="738" y="644" type="line"/>
      <point x="936" y="0" type="line"/>
      <point x="1168" y="0" type="line"/>
      <point x="1488" y="970" type="line"/>
      <point x="1252" y="970" type="line"/>
      <point x="1042" y="232" type="line"/>
      <point x="1066" y="232" type="line"/>
      <point x="868" y="918" type="line"/>
      <point x="654" y="918" type="line"/>
      <point x="456" y="234" type="line"/>
      <point x="480" y="234" type="line"/>
      <point x="270" y="970" type="line"/>
    </contour>
  </outline>
</glyph>
<glyph name="x" format="2">
  <advance width="1107"/>
  <unicode hex="0078"/>
  <outline>
    <contour>
      <point x="32" y="0" type="line"/>
      <point x="322" y="0" type="line"/>
      <point x="544" y="312" type="line"/>
      <point x="786" y="0" type="line"/>
      <point x="1074" y="0" type="line"/>
      <point x="698" y="484" type="line"/>
      <point x="1074" y="974" type="line"/>
      <point x="786" y="974" type="line"/>
      <point x="560" y="662" type="line"/>
      <point x="322" y="974" type="line"/>
      <point x="32" y="974" type="line"/>
      <point x="410" y="484" type="line"/>
    </contour>
  </outline>
</glyph>
<glyph name="y" format="2">
  <advance width="1007"/>
  <unicode hex="0079"/>
  <outline>
    <contour>
      <point x="38" y="970" type="line"/>
      <point x="428" y="0" type="line"/>
      <point x="398" y="-94" type="line" smooth="yes"/>
      <point x="362" y="-214"/>
      <point x="304" y="-296"/>
      <point x="210" y="-296" type="curve" smooth="yes"/>
      <point x="140" y="-296"/>
      <point x="72" y="-276"/>
      <point x="0" y="-230" type="curve"/>
      <point x="0" y="-438" type="line"/>
      <point x="90" y="-482"/>
      <point x="176" y="-502"/>
      <point x="268" y="-502" type="curve" smooth="yes"/>
      <point x="428" y="-502"/>
      <point x="536" y="-406"/>
      <point x="612" y="-176" type="curve" smooth="yes"/>
      <point x="984" y="970" type="line"/>
      <point x="744" y="970" type="line"/>
      <point x="522" y="206" type="line"/>
      <point x="564" y="206" type="line"/>
      <point x="306" y="970" type="line"/>
    </contour>
  </outline>
</glyph>
<glyph name="z" format="2">
  <advance width="990"/>
  <unicode hex="007A"/>
  <outline>
    <contour>
      <point x="114" y="0" type="line"/>
      <point x="878" y="0" type="line"/>
      <point x="878" y="192" type="line"/>
      <point x="390" y="192" type="line"/>
      <point x="878" y="780" type="line"/>
      <point x="878" y="970" type="line"/>
      <point x="114" y="970" type="line"/>
      <point x="114" y="780" type="line"/>
      <point x="618" y="780" type="line"/>
      <point x="114" y="192" type="line"/>
    </contour>
  </outline>
</glyph>
<glyph name="braceleft" format="2">
  <advance width="782"/>
  <unicode hex="007B"/>
  <outline>
    <contour>
      <point x="774" y="-312" type="curve"/>
      <point x="774" y="-98" type="line"/>
      <point x="578" y="-98"/>
      <point x="492" y="-6"/>
      <point x="492" y="194" type="curve" smooth="yes"/>
      <point x="492" y="386" type="line" smooth="yes"/>
      <point x="492" y="514"/>
      <point x="436" y="596"/>
      <point x="360" y="634" type="curve"/>
      <point x="360" y="644" type="line"/>
      <point x="436" y="682"/>
      <point x="492" y="764"/>
      <point x="492" y="892" type="curve" smooth="yes"/>
      <point x="492" y="1084" type="line" smooth="yes"/>
      <point x="492" y="1284"/>
      <point x="578" y="1376"/>
      <point x="774" y="1376" type="curve"/>
      <point x="774" y="1588" type="line"/>
      <point x="410" y="1588"/>
      <point x="258" y="1382"/>
      <point x="258" y="1088" type="curve" smooth="yes"/>
      <point x="258" y="904" type="line" smooth="yes"/>
      <point x="258" y="792"/>
      <point x="244" y="758"/>
      <point x="192" y="758" type="curve" smooth="yes"/>
      <point x="142" y="758" type="line"/>
      <point x="142" y="520" type="line"/>
      <point x="192" y="520" type="line" smooth="yes"/>
      <point x="244" y="520"/>
      <point x="258" y="484"/>
      <point x="258" y="374" type="curve" smooth="yes"/>
      <point x="258" y="192" type="line" smooth="yes"/>
      <point x="258" y="-102"/>
      <point x="410" y="-312"/>
    </contour>
  </outline>
</glyph>
<glyph name="bar" format="2">
  <advance width="609"/>
  <unicode hex="007C"/>
  <outline>
    <contour>
      <point x="186" y="-244" type="line"/>
      <point x="422" y="-244" type="line"/>
      <point x="422" y="1540" type="line"/>
      <point x="186" y="1540" type="line"/>
    </contour>
  </outline>
</glyph>
<glyph name="asciitilde" format="2">
  <advance width="1139"/>
  <unicode hex="007E"/>
  <anchor x="580" y="322" name="_above"/>
  <outline>
    <contour>
      <point x="240" y="408" type="line"/>
      <point x="274" y="496"/>
      <point x="316" y="530"/>
      <point x="368" y="530" type="curve" smooth="yes"/>
      <point x="408" y="530"/>
      <point x="448" y="514"/>
      <point x="546" y="480" type="curve" smooth="yes"/>
      <point x="644" y="440"/>
      <point x="706" y="424"/>
      <point x="750" y="424" type="curve" smooth="yes"/>
      <point x="874" y="424"/>
      <point x="970" y="508"/>
      <point x="1024" y="678" type="curve"/>
      <point x="898" y="758" type="line"/>
      <point x="866" y="686"/>
      <point x="820" y="648"/>
      <point x="768" y="648" type="curve" smooth="yes"/>
      <point x="728" y="648"/>
      <point x="682" y="662"/>
      <point x="586" y="700" type="curve" smooth="yes"/>
      <point x="488" y="738"/>
      <point x="428" y="756"/>
      <point x="370" y="756" type="curve" smooth="yes"/>
      <point x="238" y="756"/>
      <point x="160" y="648"/>
      <point x="114" y="476" type="curve"/>
    </contour>
  </outline>
</glyph>
<glyph name="cent" format="2">
  <advance width="1057"/>
  <unicode hex="00A2"/>
  <outline>
    <contour>
      <point x="452" y="-216" type="line"/>
      <point x="646" y="-216" type="line"/>
      <point x="646" y="42" type="line"/>
      <point x="452" y="42" type="line"/>
    </contour>
    <contour>
      <point x="452" y="940" type="line"/>
      <point x="646" y="940" type="line"/>
      <point x="646" y="1174" type="line"/>
      <point x="452" y="1174" type="line"/>
    </contour>
    <component base="c"/>
  </outline>
</glyph>
<glyph name="sterling" format="2">
  <advance width="1203"/>
  <unicode hex="00A3"/>
  <outline>
    <contour>
      <point x="108" y="144" type="line"/>
      <point x="388" y="144"/>
      <point x="478" y="226"/>
      <point x="478" y="402" type="curve" smooth="yes"/>
      <point x="478" y="888" type="line" smooth="yes"/>
      <point x="478" y="1040"/>
      <point x="546" y="1110"/>
      <point x="650" y="1110" type="curve" smooth="yes"/>
      <point x="732" y="1110"/>
      <point x="790" y="1062"/>
      <point x="802" y="974" type="curve"/>
      <point x="1034" y="974" type="line"/>
      <point x="1002" y="1206"/>
      <point x="870" y="1324"/>
      <point x="650" y="1324" type="curve" smooth="yes"/>
      <point x="404" y="1324"/>
      <point x="242" y="1176"/>
      <point x="242" y="888" type="curve" smooth="yes"/>
      <point x="242" y="386" type="line" smooth="yes"/>
      <point x="242" y="268"/>
      <point x="206" y="212"/>
      <point x="108" y="212" type="curve"/>
    </contour>
    <contour>
      <point x="44" y="0" type="line"/>
      <point x="680" y="0" type="line" smooth="yes"/>
      <point x="1004" y="0"/>
      <point x="1124" y="136"/>
      <point x="1130" y="368" type="curve"/>
      <point x="874" y="368" type="line"/>
      <point x="860" y="262"/>
      <point x="810" y="212"/>
      <point x="678" y="212" type="curve" smooth="yes"/>
      <point x="44" y="212" type="line"/>
    </contour>
    <contour>
      <point x="76" y="562" type="line"/>
      <point x="820" y="562" type="line"/>
      <point x="820" y="720" type="line"/>
      <point x="76" y="720" type="line"/>
    </contour>
  </outline>
</glyph>
<glyph name="currency" format="2">
  <advance width="1200"/>
  <unicode hex="00A4"/>
  <outline>
    <contour>
      <point x="600" y="216" type="curve" smooth="yes"/>
      <point x="834" y="216"/>
      <point x="1022" y="406"/>
      <point x="1022" y="640" type="curve" smooth="yes"/>
      <point x="1022" y="874"/>
      <point x="834" y="1064"/>
      <point x="600" y="1064" type="curve" smooth="yes"/>
      <point x="366" y="1064"/>
      <point x="176" y="874"/>
      <point x="176" y="640" type="curve" smooth="yes"/>
      <point x="176" y="406"/>
      <point x="366" y="216"/>
    </contour>
    <contour>
      <point x="600" y="426" type="curve" smooth="yes"/>
      <point x="482" y="426"/>
      <point x="386" y="522"/>
      <point x="386" y="640" type="curve" smooth="yes"/>
      <point x="386" y="760"/>
      <point x="482" y="854"/>
      <point x="600" y="854" type="curve" smooth="yes"/>
      <point x="718" y="854"/>
      <point x="814" y="760"/>
      <point x="814" y="640" type="curve" smooth="yes"/>
      <point x="814" y="522"/>
      <point x="718" y="426"/>
    </contour>
    <contour>
      <point x="848" y="788" type="line"/>
      <point x="1078" y="1020" type="line"/>
      <point x="978" y="1118" type="line"/>
      <point x="748" y="888" type="line"/>
    </contour>
    <contour>
      <point x="340" y="800" type="line"/>
      <point x="438" y="900" type="line"/>
      <point x="220" y="1118" type="line"/>
      <point x="122" y="1018" type="line"/>
    </contour>
    <contour>
      <point x="860" y="480" type="line"/>
      <point x="762" y="380" type="line"/>
      <point x="980" y="162" type="line"/>
      <point x="1078" y="262" type="line"/>
    </contour>
    <contour>
      <point x="340" y="480" type="line"/>
      <point x="122" y="262" type="line"/>
      <point x="220" y="162" type="line"/>
      <point x="438" y="380" type="line"/>
    </contour>
  </outline>
</glyph>
<glyph name="yen" format="2">
  <advance width="1173"/>
  <unicode hex="00A5"/>
  <outline>
    <contour>
      <point x="460" y="0" type="line"/>
      <point x="696" y="0" type="line"/>
      <point x="696" y="536" type="line"/>
      <point x="1158" y="1298" type="line"/>
      <point x="880" y="1298" type="line"/>
      <point x="558" y="740" type="line"/>
      <point x="604" y="740" type="line"/>
      <point x="294" y="1298" type="line"/>
      <point x="14" y="1298" type="line"/>
      <point x="460" y="536" type="line"/>
    </contour>
    <contour>
      <point x="232" y="170" type="line"/>
      <point x="930" y="170" type="line"/>
      <point x="930" y="302" type="line"/>
      <point x="232" y="302" type="line"/>
    </contour>
    <contour>
      <point x="232" y="384" type="line"/>
      <point x="930" y="384" type="line"/>
      <point x="930" y="516" type="line"/>
      <point x="232" y="516" type="line"/>
    </contour>
  </outline>
</glyph>
<glyph name="dieresis" format="2">
  <advance width="764"/>
  <unicode hex="00A8"/>
  <anchor x="380" y="1366" name="_above"/>
  <outline>
    <contour>
      <point x="572" y="1540" type="curve" smooth="yes"/>
      <point x="654" y="1540"/>
      <point x="714" y="1596"/>
      <point x="714" y="1672" type="curve" smooth="yes"/>
      <point x="714" y="1748"/>
      <point x="654" y="1806"/>
      <point x="572" y="1806" type="curve" smooth="yes"/>
      <point x="494" y="1806"/>
      <point x="432" y="1748"/>
      <point x="432" y="1672" type="curve" smooth="yes"/>
      <point x="432" y="1596"/>
      <point x="494" y="1540"/>
    </contour>
    <contour>
      <point x="188" y="1540" type="curve" smooth="yes"/>
      <point x="270" y="1540"/>
      <point x="330" y="1596"/>
      <point x="330" y="1670" type="curve" smooth="yes"/>
      <point x="330" y="1748"/>
      <point x="270" y="1804"/>
      <point x="188" y="1804" type="curve" smooth="yes"/>
      <point x="106" y="1804"/>
      <point x="48" y="1748"/>
      <point x="48" y="1670" type="curve" smooth="yes"/>
      <point x="48" y="1596"/>
      <point x="106" y="1540"/>
    </contour>
  </outline>
</glyph>
<glyph name="plusminus" format="2">
  <advance width="1012"/>
  <unicode hex="00B1"/>
  <outline>
    <contour>
      <point x="414" y="1098" type="line"/>
      <point x="414" y="792" type="line"/>
      <point x="136" y="792" type="line"/>
      <point x="136" y="640" type="line"/>
      <point x="414" y="640" type="line"/>
      <point x="414" y="336" type="line"/>
      <point x="598" y="336" type="line"/>
      <point x="598" y="640" type="line"/>
      <point x="876" y="640" type="line"/>
      <point x="876" y="792" type="line"/>
      <point x="598" y="792" type="line"/>
      <point x="598" y="1098" type="line"/>
    </contour>
    <contour>
      <point x="152" y="178" type="line"/>
      <point x="152" y="0" type="line"/>
      <point x="862" y="0" type="line"/>
      <point x="862" y="178" type="line"/>
    </contour>
  </outline>
</glyph>
<glyph name="acute" format="2">
  <advance width="713"/>
  <unicode hex="00B4"/>
  <anchor x="356" y="1324" name="_above"/>
  <outline>
    <contour>
      <point x="106" y="1388" type="line"/>
      <point x="664" y="1596" type="line"/>
      <point x="580" y="1800" type="line"/>
      <point x="46" y="1536" type="line"/>
    </contour>
  </outline>
</glyph>
<glyph name="multiply" format="2">
  <advance width="1088"/>
  <unicode hex="00D7"/>
  <outline>
    <contour>
      <point x="284" y="90" type="line"/>
      <point x="544" y="350" type="line"/>
      <point x="804" y="90" type="line"/>
      <point x="972" y="258" type="line"/>
      <point x="710" y="518" type="line"/>
      <point x="972" y="776" type="line"/>
      <point x="804" y="944" type="line"/>
      <point x="544" y="684" type="line"/>
      <point x="284" y="944" type="line"/>
      <point x="118" y="776" type="line"/>
      <point x="378" y="518" type="line"/>
      <point x="118" y="258" type="line"/>
    </contour>
  </outline>
</glyph>
<glyph name="divide" format="2">
  <advance width="1041"/>
  <unicode hex="00F7"/>
  <outline>
    <contour>
      <point x="132" y="444" type="line"/>
      <point x="908" y="444" type="line"/>
      <point x="908" y="652" type="line"/>
      <point x="132" y="652" type="line"/>
    </contour>
    <contour>
      <point x="518" y="78" type="curve" smooth="yes"/>
      <point x="598" y="78"/>
      <point x="658" y="134"/>
      <point x="658" y="208" type="curve" smooth="yes"/>
      <point x="658" y="282"/>
      <point x="598" y="338"/>
      <point x="518" y="338" type="curve" smooth="yes"/>
      <point x="440" y="338"/>
      <point x="382" y="282"/>
      <point x="382" y="208" type="curve" smooth="yes"/>
      <point x="382" y="134"/>
      <point x="440" y="78"/>
    </contour>
    <contour>
      <point x="518" y="752" type="curve" smooth="yes"/>
      <point x="598" y="752"/>
      <point x="658" y="806"/>
      <point x="658" y="882" type="curve" smooth="yes"/>
      <point x="658" y="954"/>
      <point x="598" y="1012"/>
      <point x="518" y="1012" type="curve" smooth="yes"/>
      <point x="440" y="1012"/>
      <point x="382" y="954"/>
      <point x="382" y="882" type="curve" smooth="yes"/>
      <point x="382" y="806"/>
      <point x="440" y="752"/>
    </contour>
  </outline>
</glyph>
<glyph name="dotlessi" format="2">
  <advance width="609"/>
  <unicode hex="0131"/>
  <anchor x="304" y="1052" name="above"/>
  <outline>
    <contour>
      <point x="186" y="0" type="line"/>
      <point x="422" y="0" type="line"/>
      <point x="422" y="974" type="line"/>
      <point x="186" y="974" type="line"/>
    </contour>
  </outline>
</glyph>
<glyph name="circumflex" format="2">
  <advance width="930"/>
  <unicode hex="02C6"/>
  <anchor x="466" y="1324" name="_above"/>
  <outline>
    <contour>
      <point x="198" y="1386" type="line"/>
      <point x="466" y="1588" type="line"/>
      <point x="732" y="1386" type="line"/>
      <point x="882" y="1504" type="line"/>
      <point x="466" y="1826" type="line"/>
      <point x="48" y="1504" type="line"/>
    </contour>
  </outline>
</glyph>
<glyph name="tilde" format="2">
  <advance width="789"/>
  <unicode hex="02DC"/>
  <anchor x="392" y="1324" name="_above"/>
  <outline>
    <contour>
      <point x="140" y="1462" type="line"/>
      <point x="178" y="1540"/>
      <point x="216" y="1562"/>
      <point x="260" y="1562" type="curve" smooth="yes"/>
      <point x="288" y="1562"/>
      <point x="310" y="1552"/>
      <point x="374" y="1518" type="curve" smooth="yes"/>
      <point x="450" y="1480"/>
      <point x="490" y="1462"/>
      <point x="538" y="1462" type="curve" smooth="yes"/>
      <point x="620" y="1462"/>
      <point x="710" y="1564"/>
      <point x="738" y="1708" type="curve"/>
      <point x="638" y="1774" type="line"/>
      <point x="610" y="1706"/>
      <point x="570" y="1676"/>
      <point x="532" y="1676" type="curve" smooth="yes"/>
      <point x="500" y="1676"/>
      <point x="474" y="1690"/>
      <point x="406" y="1724" type="curve" smooth="yes"/>
      <point x="334" y="1762"/>
      <point x="298" y="1774"/>
      <point x="260" y="1774" type="curve" smooth="yes"/>
      <point x="156" y="1774"/>
      <point x="78" y="1680"/>
      <point x="46" y="1518" type="curve"/>
    </contour>
  </outline>
</glyph>
<glyph name="emdash" format="2">
  <advance width="1536"/>
  <unicode hex="2014"/>
  <outline>
    <contour>
      <point x="110" y="500" type="line"/>
      <point x="1428" y="500" type="line"/>
      <point x="1428" y="706" type="line"/>
      <point x="110" y="706" type="line"/>
    </contour>
  </outline>
</glyph>
<glyph name="quoteleft" format="2">
  <advance width="542"/>
  <unicode hex="2018"/>
  <outline>
    <contour>
      <point x="262" y="758" type="curve" smooth="yes"/>
      <point x="356" y="758"/>
      <point x="424" y="822"/>
      <point x="424" y="904" type="curve" smooth="yes"/>
      <point x="424" y="978"/>
      <point x="364" y="1026"/>
      <point x="288" y="1038" type="curve"/>
      <point x="314" y="1114"/>
      <point x="386" y="1170"/>
      <point x="474" y="1212" type="curve"/>
      <point x="310" y="1304" type="line"/>
      <point x="168" y="1232"/>
      <point x="72" y="1100"/>
      <point x="72" y="974" type="curve" smooth="yes"/>
      <point x="72" y="854"/>
      <point x="146" y="758"/>
    </contour>
  </outline>
</glyph>
<glyph name="quoteright" format="2">
  <advance width="542"/>
  <unicode hex="2019"/>
  <outline>
    <contour>
      <point x="222" y="758" type="line"/>
      <point x="362" y="832"/>
      <point x="458" y="960"/>
      <point x="458" y="1088" type="curve" smooth="yes"/>
      <point x="458" y="1208"/>
      <point x="386" y="1304"/>
      <point x="272" y="1304" type="curve" smooth="yes"/>
      <point x="176" y="1304"/>
      <point x="108" y="1242"/>
      <point x="108" y="1160" type="curve" smooth="yes"/>
      <point x="108" y="1084"/>
      <point x="166" y="1036"/>
      <point x="244" y="1024" type="curve"/>
      <point x="220" y="950"/>
      <point x="146" y="892"/>
      <point x="58" y="850" type="curve"/>
    </contour>
  </outline>
</glyph>
<glyph name="euro" format="2">
  <advance width="1267"/>
  <unicode hex="20AC"/>
  <outline>
    <contour>
      <point x="694" y="-28" type="curve" smooth="yes"/>
      <point x="1014" y="-28"/>
      <point x="1210" y="138"/>
      <point x="1210" y="428" type="curve"/>
      <point x="958" y="428" type="line"/>
      <point x="958" y="288"/>
      <point x="860" y="188"/>
      <point x="694" y="188" type="curve" smooth="yes"/>
      <point x="500" y="188"/>
      <point x="388" y="364"/>
      <point x="388" y="652" type="curve" smooth="yes"/>
      <point x="388" y="958"/>
      <point x="526" y="1110"/>
      <point x="694" y="1110" type="curve" smooth="yes"/>
      <point x="824" y="1110"/>
      <point x="916" y="1018"/>
      <point x="958" y="882" type="curve"/>
      <point x="1210" y="928" type="line"/>
      <point x="1162" y="1162"/>
      <point x="994" y="1324"/>
      <point x="694" y="1324" type="curve" smooth="yes"/>
      <point x="370" y="1324"/>
      <point x="134" y="1092"/>
      <point x="134" y="652" type="curve" smooth="yes"/>
      <point x="134" y="226"/>
      <point x="356" y="-28"/>
    </contour>
    <contour>
      <point x="40" y="470" type="line"/>
      <point x="750" y="470" type="line"/>
      <point x="750" y="604" type="line"/>
      <point x="40" y="604" type="line"/>
    </contour>
    <contour>
      <point x="40" y="690" type="line"/>
      <point x="750" y="690" type="line"/>
      <point x="750" y="824" type="line"/>
      <point x="40" y="824" type="line"/>
    </contour>
  </outline>
</glyph>
<glyph name="Rupee" format="2">
  <advance width="1208"/>
  <unicode hex="20B9"/>
  <outline>
    <contour>
      <point x="166" y="1166" type="line"/>
      <point x="1092" y="1166" type="line"/>
      <point x="1092" y="1298" type="line"/>
      <point x="166" y="1298" type="line"/>
    </contour>
    <contour>
      <point x="166" y="844" type="line"/>
      <point x="1092" y="844" type="line"/>
      <point x="1092" y="978" type="line"/>
      <point x="166" y="978" type="line"/>
    </contour>
    <contour>
      <point x="166" y="626" type="line"/>
      <point x="166" y="492" type="line"/>
      <point x="678" y="0" type="line"/>
      <point x="1008" y="0" type="line"/>
      <point x="360" y="626" type="line"/>
    </contour>
    <contour>
      <point x="244" y="626" type="line"/>
      <point x="244" y="492" type="line"/>
      <point x="304" y="492" type="line" smooth="yes"/>
      <point x="730" y="492"/>
      <point x="890" y="666"/>
      <point x="890" y="896" type="curve" smooth="yes"/>
      <point x="890" y="1112"/>
      <point x="692" y="1260"/>
      <point x="304" y="1260" type="curve" smooth="yes"/>
      <point x="244" y="1260" type="line"/>
      <point x="244" y="1166" type="line"/>
      <point x="304" y="1166" type="line" smooth="yes"/>
      <point x="536" y="1166"/>
      <point x="636" y="1050"/>
      <point x="636" y="896" type="curve" smooth="yes"/>
      <point x="636" y="742"/>
      <point x="536" y="626"/>
      <point x="304" y="626" type="curve" smooth="yes"/>
    </contour>
  </outline>
</glyph>
<glyph name="minus" format="2">
  <advance width="1087"/>
  <unicode hex="2212"/>
  <outline>
    <contour>
      <point x="36" y="596" type="line"/>
      <point x="36" y="390" type="line"/>
      <point x="1052" y="390" type="line"/>
      <point x="1052" y="596" type="line"/>
    </contour>
  </outline>
</glyph>
<glyph name="notequal" format="2">
  <advance width="1012"/>
  <unicode hex="2260"/>
  <outline>
    <contour>
      <point x="158" y="396" type="line"/>
      <point x="158" y="192" type="line"/>
      <point x="854" y="192" type="line"/>
      <point x="854" y="396" type="line"/>
    </contour>
    <contour>
      <point x="158" y="816" type="line"/>
      <point x="158" y="612" type="line"/>
      <point x="854" y="612" type="line"/>
      <point x="854" y="816" type="line"/>
    </contour>
    <contour>
      <point x="274" y="64" type="line"/>
      <point x="428" y="64" type="line"/>
      <point x="744" y="966" type="line"/>
      <point x="592" y="966" type="line"/>
    </contour>
  </outline>
</glyph>
<glyph name="lessequal" format="2">
  <advance width="1012"/>
  <unicode hex="2264"/>
  <outline>
    <contour>
      <point x="824" y="286" type="line"/>
      <point x="870" y="476" type="line"/>
      <point x="278" y="666" type="line"/>
      <point x="278" y="582" type="line"/>
      <point x="870" y="774" type="line"/>
      <point x="824" y="964" type="line"/>
      <point x="150" y="712" type="line"/>
      <point x="150" y="536" type="line"/>
    </contour>
    <contour>
      <point x="146" y="0" type="line"/>
      <point x="842" y="0" type="line"/>
      <point x="842" y="178" type="line"/>
      <point x="146" y="178" type="line"/>
    </contour>
  </outline>
</glyph>
<glyph name="greaterequal" format="2">
  <advance width="1012"/>
  <unicode hex="2265"/>
  <outline>
    <contour>
      <point x="190" y="286" type="line"/>
      <point x="862" y="536" type="line"/>
      <point x="862" y="712" type="line"/>
      <point x="190" y="964" type="line"/>
      <point x="142" y="774" type="line"/>
      <point x="734" y="582" type="line"/>
      <point x="734" y="666" type="line"/>
      <point x="142" y="476" type="line"/>
    </contour>
    <contour>
      <point x="170" y="0" type="line"/>
      <point x="866" y="0" type="line"/>
      <point x="866" y="178" type="line"/>
      <point x="170" y="178" type="line"/>
    </contour>
  </outline>
</glyph>
<glyph name="asciicircum.tf" format="2">
  <advance width="1200"/>
  <outline>
    <contour>
      <point x="108" y="436" type="line"/>
      <point x="370" y="436" type="line"/>
      <point x="646" y="1026" type="line"/>
      <point x="556" y="1026" type="line"/>
      <point x="830" y="436" type="line"/>
      <point x="1092" y="436" type="line"/>
      <point x="696" y="1206" type="line"/>
      <point x="506" y="1206" type="line"/>
    </contour>
  </outline>
</glyph>
<glyph name="asciitilde.tf" format="2">
  <advance width="1200"/>
  <outline>
    <contour>
      <point x="268" y="408" type="line"/>
      <point x="304" y="496"/>
      <point x="346" y="530"/>
      <point x="396" y="530" type="curve" smooth="yes"/>
      <point x="436" y="530"/>
      <point x="478" y="518"/>
      <point x="574" y="480" type="curve" smooth="yes"/>
      <point x="672" y="440"/>
      <point x="734" y="424"/>
      <point x="778" y="424" type="curve" smooth="yes"/>
      <point x="904" y="424"/>
      <point x="1000" y="508"/>
      <point x="1054" y="678" type="curve"/>
      <point x="926" y="758" type="line"/>
      <point x="894" y="686"/>
      <point x="848" y="648"/>
      <point x="798" y="648" type="curve" smooth="yes"/>
      <point x="758" y="648"/>
      <point x="710" y="662"/>
      <point x="614" y="700" type="curve" smooth="yes"/>
      <point x="516" y="738"/>
      <point x="456" y="756"/>
      <point x="398" y="756" type="curve" smooth="yes"/>
      <point x="266" y="756"/>
      <point x="188" y="648"/>
      <point x="142" y="476" type="curve"/>
    </contour>
  </outline>
</glyph>
<glyph name="asterisk.tf" format="2">
  <advance width="1200"/>
  <outline>
    <contour>
      <point x="450" y="792" type="line"/>
      <point x="602" y="994" type="line"/>
      <point x="750" y="792" type="line"/>
      <point x="868" y="894" type="line"/>
      <point x="696" y="1058" type="line"/>
      <point x="914" y="1132" type="line"/>
      <point x="854" y="1274" type="line"/>
      <point x="656" y="1170" type="line"/>
      <point x="680" y="1408" type="line"/>
      <point x="520" y="1408" type="line"/>
      <point x="544" y="1170" type="line"/>
      <point x="346" y="1270" type="line"/>
      <point x="286" y="1130" type="line"/>
      <point x="508" y="1056" type="line"/>
      <point x="336" y="894" type="line"/>
    </contour>
  </outline>
</glyph>
<glyph name="comma.tf" format="2">
  <advance width="1200"/>
  <outline>
    <contour>
      <point x="570" y="-284" type="line"/>
      <point x="724" y="-210"/>
      <point x="816" y="-62"/>
      <point x="816" y="72" type="curve" smooth="yes"/>
      <point x="816" y="200"/>
      <point x="738" y="302"/>
      <point x="612" y="302" type="curve" smooth="yes"/>
      <point x="510" y="302"/>
      <point x="438" y="234"/>
      <point x="438" y="148" type="curve" smooth="yes"/>
      <point x="438" y="66"/>
      <point x="502" y="14"/>
      <point x="584" y="-2" type="curve"/>
      <point x="558" y="-80"/>
      <point x="478" y="-144"/>
      <point x="382" y="-192" type="curve"/>
    </contour>
  </outline>
</glyph>
<glyph name="dollar.tf" format="2">
  <advance width="1200"/>
  <outline>
    <contour>
      <point x="610" y="-28" type="curve" smooth="yes"/>
      <point x="968" y="-28"/>
      <point x="1134" y="158"/>
      <point x="1134" y="346" type="curve" smooth="yes"/>
      <point x="1134" y="516"/>
      <point x="1038" y="620"/>
      <point x="850" y="686" type="curve" smooth="yes"/>
      <point x="594" y="776" type="line"/>
      <point x="594" y="572" type="line"/>
      <point x="738" y="518" type="line" smooth="yes"/>
      <point x="820" y="490"/>
      <point x="870" y="428"/>
      <point x="870" y="352" type="curve" smooth="yes"/>
      <point x="870" y="262"/>
      <point x="788" y="188"/>
      <point x="620" y="188" type="curve" smooth="yes"/>
      <point x="426" y="188"/>
      <point x="296" y="250"/>
      <point x="296" y="406" type="curve"/>
      <point x="64" y="406" type="line"/>
      <point x="64" y="106"/>
      <point x="332" y="-28"/>
    </contour>
    <contour>
      <point x="532" y="-202" type="line"/>
      <point x="702" y="-202" type="line"/>
      <point x="702" y="1474" type="line"/>
      <point x="532" y="1474" type="line"/>
    </contour>
    <contour>
      <point x="592" y="568" type="line"/>
      <point x="592" y="776" type="line"/>
      <point x="486" y="820" type="line" smooth="yes"/>
      <point x="400" y="850"/>
      <point x="358" y="892"/>
      <point x="358" y="962" type="curve" smooth="yes"/>
      <point x="358" y="1056"/>
      <point x="448" y="1122"/>
      <point x="618" y="1122" type="curve" smooth="yes"/>
      <point x="762" y="1122"/>
      <point x="860" y="1042"/>
      <point x="874" y="940" type="curve"/>
      <point x="1106" y="940" type="line"/>
      <point x="1072" y="1176"/>
      <point x="914" y="1324"/>
      <point x="622" y="1324" type="curve" smooth="yes"/>
      <point x="286" y="1324"/>
      <point x="102" y="1180"/>
      <point x="102" y="970" type="curve" smooth="yes"/>
      <point x="102" y="786"/>
      <point x="228" y="692"/>
      <point x="446" y="618" type="curve" smooth="yes"/>
    </contour>
  </outline>
</glyph>
<glyph name="eight.prop" format="2">
  <advance width="1293"/>
  <outline>
    <contour>
      <point x="646" y="-28" type="curve" smooth="yes"/>
      <point x="996" y="-28"/>
      <point x="1196" y="128"/>
      <point x="1196" y="344" type="curve" smooth="yes"/>
      <point x="1196" y="516"/>
      <point x="1090" y="600"/>
      <point x="900" y="674" type="curve" smooth="yes"/>
      <point x="518" y="822" type="line" smooth="yes"/>
      <point x="432" y="856"/>
      <point x="386" y="894"/>
      <point x="386" y="960" type="curve" smooth="yes"/>
      <point x="386" y="1046"/>
      <point x="500" y="1110"/>
      <point x="646" y="1110" type="curve" smooth="yes"/>
      <point x="800" y="1110"/>
      <point x="906" y="1042"/>
      <point x="906" y="936" type="curve" smooth="yes"/>
      <point x="906" y="832"/>
      <point x="790" y="764"/>
      <point x="658" y="764" type="curve"/>
      <point x="658" y="696" type="line"/>
      <point x="714" y="678"/>
      <point x="752" y="670"/>
      <point x="802" y="670" type="curve" smooth="yes"/>
      <point x="1022" y="670"/>
      <point x="1150" y="802"/>
      <point x="1150" y="952" type="curve" smooth="yes"/>
      <point x="1150" y="1168"/>
      <point x="930" y="1324"/>
      <point x="646" y="1324" type="curve" smooth="yes"/>
      <point x="326" y="1324"/>
      <point x="142" y="1186"/>
      <point x="142" y="970" type="curve" smooth="yes"/>
      <point x="142" y="782"/>
      <point x="310" y="672"/>
      <point x="444" y="620" type="curve" smooth="yes"/>
      <point x="814" y="478" type="line" smooth="yes"/>
      <point x="900" y="444"/>
      <point x="952" y="398"/>
      <point x="952" y="332" type="curve" smooth="yes"/>
      <point x="952" y="248"/>
      <point x="854" y="188"/>
      <point x="646" y="188" type="curve" smooth="yes"/>
      <point x="478" y="188"/>
      <point x="342" y="258"/>
      <point x="342" y="374" type="curve" smooth="yes"/>
      <point x="342" y="474"/>
      <point x="464" y="558"/>
      <point x="634" y="558" type="curve"/>
      <point x="634" y="616" type="line"/>
      <point x="570" y="632"/>
      <point x="528" y="642"/>
      <point x="472" y="642" type="curve" smooth="yes"/>
      <point x="260" y="642"/>
      <point x="98" y="534"/>
      <point x="98" y="350" type="curve" smooth="yes"/>
      <point x="98" y="134"/>
      <point x="312" y="-28"/>
    </contour>
  </outline>
</glyph>
<glyph name="eight.tf" format="2">
  <advance width="1200"/>
  <outline>
    <contour>
      <point x="598" y="-28" type="curve" smooth="yes"/>
      <point x="948" y="-28"/>
      <point x="1148" y="128"/>
      <point x="1148" y="344" type="curve" smooth="yes"/>
      <point x="1148" y="516"/>
      <point x="1042" y="600"/>
      <point x="852" y="674" type="curve" smooth="yes"/>
      <point x="470" y="822" type="line" smooth="yes"/>
      <point x="382" y="854"/>
      <point x="338" y="894"/>
      <point x="338" y="960" type="curve" smooth="yes"/>
      <point x="338" y="1046"/>
      <point x="452" y="1110"/>
      <point x="598" y="1110" type="curve" smooth="yes"/>
      <point x="752" y="1110"/>
      <point x="858" y="1042"/>
      <point x="858" y="936" type="curve" smooth="yes"/>
      <point x="858" y="832"/>
      <point x="742" y="764"/>
      <point x="610" y="764" type="curve"/>
      <point x="610" y="696" type="line"/>
      <point x="666" y="678"/>
      <point x="704" y="670"/>
      <point x="754" y="670" type="curve" smooth="yes"/>
      <point x="976" y="670"/>
      <point x="1102" y="802"/>
      <point x="1102" y="952" type="curve" smooth="yes"/>
      <point x="1102" y="1168"/>
      <point x="882" y="1324"/>
      <point x="598" y="1324" type="curve" smooth="yes"/>
      <point x="278" y="1324"/>
      <point x="94" y="1186"/>
      <point x="94" y="970" type="curve" smooth="yes"/>
      <point x="94" y="782"/>
      <point x="262" y="670"/>
      <point x="396" y="620" type="curve" smooth="yes"/>
      <point x="766" y="478" type="line" smooth="yes"/>
      <point x="852" y="444"/>
      <point x="904" y="398"/>
      <point x="904" y="332" type="curve" smooth="yes"/>
      <point x="904" y="248"/>
      <point x="806" y="188"/>
      <point x="598" y="188" type="curve" smooth="yes"/>
      <point x="430" y="188"/>
      <point x="294" y="258"/>
      <point x="294" y="374" type="curve" smooth="yes"/>
      <point x="294" y="474"/>
      <point x="416" y="558"/>
      <point x="586" y="558" type="curve"/>
      <point x="586" y="616" type="line"/>
      <point x="522" y="632"/>
      <point x="480" y="642"/>
      <point x="424" y="642" type="curve" smooth="yes"/>
      <point x="212" y="642"/>
      <point x="50" y="534"/>
      <point x="50" y="350" type="curve" smooth="yes"/>
      <point x="50" y="134"/>
      <point x="264" y="-28"/>
    </contour>
  </outline>
</glyph>
<glyph name="equal.tf" format="2">
  <advance width="1200"/>
  <outline>
    <contour>
      <point x="252" y="396" type="line"/>
      <point x="252" y="192" type="line"/>
      <point x="948" y="192" type="line"/>
      <point x="948" y="396" type="line"/>
    </contour>
    <contour>
      <point x="252" y="816" type="line"/>
      <point x="252" y="612" type="line"/>
      <point x="948" y="612" type="line"/>
      <point x="948" y="816" type="line"/>
    </contour>
  </outline>
</glyph>
<glyph name="euro.tf" format="2">
  <advance width="1200"/>
  <outline>
    <contour>
      <point x="682" y="-28" type="curve" smooth="yes"/>
      <point x="962" y="-28"/>
      <point x="1154" y="138"/>
      <point x="1154" y="428" type="curve"/>
      <point x="902" y="428" type="line"/>
      <point x="902" y="288"/>
      <point x="816" y="188"/>
      <point x="664" y="188" type="curve" smooth="yes"/>
      <point x="474" y="188"/>
      <point x="384" y="362"/>
      <point x="384" y="638" type="curve" smooth="yes"/>
      <point x="384" y="966"/>
      <point x="522" y="1110"/>
      <point x="664" y="1110" type="curve" smooth="yes"/>
      <point x="780" y="1110"/>
      <point x="860" y="1018"/>
      <point x="894" y="882" type="curve"/>
      <point x="1146" y="928" type="line"/>
      <point x="1106" y="1162"/>
      <point x="950" y="1324"/>
      <point x="664" y="1324" type="curve" smooth="yes"/>
      <point x="366" y="1324"/>
      <point x="130" y="1094"/>
      <point x="130" y="650" type="curve" smooth="yes"/>
      <point x="130" y="228"/>
      <point x="344" y="-28"/>
    </contour>
    <contour>
      <point x="36" y="470" type="line"/>
      <point x="694" y="470" type="line"/>
      <point x="694" y="604" type="line"/>
      <point x="36" y="604" type="line"/>
    </contour>
    <contour>
      <point x="36" y="690" type="line"/>
      <point x="694" y="690" type="line"/>
      <point x="694" y="824" type="line"/>
      <point x="36" y="824" type="line"/>
    </contour>
  </outline>
</glyph>
<glyph name="exclam.tf" format="2">
  <advance width="1200"/>
  <outline>
    <contour>
      <point x="496" y="438" type="line"/>
      <point x="700" y="438" type="line"/>
      <point x="726" y="1326" type="line"/>
      <point x="470" y="1326" type="line"/>
    </contour>
    <contour>
      <point x="598" y="-18" type="curve" smooth="yes"/>
      <point x="696" y="-18"/>
      <point x="766" y="48"/>
      <point x="766" y="140" type="curve" smooth="yes"/>
      <point x="766" y="228"/>
      <point x="696" y="298"/>
      <point x="598" y="298" type="curve" smooth="yes"/>
      <point x="502" y="298"/>
      <point x="434" y="228"/>
      <point x="434" y="140" type="curve" smooth="yes"/>
      <point x="434" y="48"/>
      <point x="502" y="-18"/>
    </contour>
  </outline>
</glyph>
<glyph name="five.prop" format="2">
  <advance width="1178"/>
  <outline>
    <contour>
      <point x="568" y="-238" type="curve" smooth="yes"/>
      <point x="856" y="-238"/>
      <point x="1074" y="-42"/>
      <point x="1074" y="230" type="curve" smooth="yes"/>
      <point x="1074" y="488"/>
      <point x="896" y="656"/>
      <point x="618" y="656" type="curve" smooth="yes"/>
      <point x="544" y="656"/>
      <point x="480" y="648"/>
      <point x="412" y="628" type="curve"/>
      <point x="428" y="608" type="line"/>
      <point x="466" y="1002" type="line"/>
      <point x="422" y="946" type="line"/>
      <point x="1006" y="946" type="line"/>
      <point x="1006" y="1160" type="line"/>
      <point x="244" y="1160" type="line"/>
      <point x="182" y="468" type="line"/>
      <point x="550" y="468" type="line" smooth="yes"/>
      <point x="744" y="468"/>
      <point x="838" y="378"/>
      <point x="838" y="230" type="curve" smooth="yes"/>
      <point x="838" y="80"/>
      <point x="724" y="-22"/>
      <point x="574" y="-22" type="curve" smooth="yes"/>
      <point x="438" y="-22"/>
      <point x="348" y="48"/>
      <point x="348" y="184" type="curve"/>
      <point x="114" y="184" type="line"/>
      <point x="114" y="-90"/>
      <point x="330" y="-238"/>
    </contour>
  </outline>
</glyph>
<glyph name="five.tf" format="2">
  <advance width="1200"/>
  <outline>
    <contour>
      <point x="592" y="-28" type="curve" smooth="yes"/>
      <point x="888" y="-28"/>
      <point x="1082" y="174"/>
      <point x="1082" y="432" type="curve" smooth="yes"/>
      <point x="1082" y="674"/>
      <point x="910" y="808"/>
      <point x="642" y="808" type="curve" smooth="yes"/>
      <point x="578" y="808"/>
      <point x="478" y="800"/>
      <point x="414" y="786" type="curve"/>
      <point x="434" y="764" type="line"/>
      <point x="472" y="1150" type="line"/>
      <point x="426" y="1082" type="line"/>
      <point x="1014" y="1082" type="line"/>
      <point x="1014" y="1298" type="line"/>
      <point x="236" y="1298" type="line"/>
      <point x="176" y="632" type="line"/>
      <point x="572" y="632" type="line" smooth="yes"/>
      <point x="750" y="632"/>
      <point x="840" y="562"/>
      <point x="840" y="432" type="curve" smooth="yes"/>
      <point x="840" y="294"/>
      <point x="738" y="188"/>
      <point x="592" y="188" type="curve" smooth="yes"/>
      <point x="456" y="188"/>
      <point x="352" y="254"/>
      <point x="352" y="388" type="curve"/>
      <point x="112" y="388" type="line"/>
      <point x="118" y="122"/>
      <point x="312" y="-28"/>
    </contour>
  </outline>
</glyph>
<glyph name="four.prop" format="2">
  <advance width="1192"/>
  <outline>
    <contour>
      <point x="694" y="-216" type="line"/>
      <point x="932" y="-216" type="line"/>
      <point x="932" y="98" type="line"/>
      <point x="1156" y="98" type="line"/>
      <point x="1156" y="302" type="line"/>
      <point x="932" y="302" type="line"/>
      <point x="932" y="1148" type="line"/>
      <point x="700" y="1148" type="line"/>
      <point x="36" y="276" type="line"/>
      <point x="36" y="98" type="line"/>
      <point x="694" y="98" type="line"/>
    </contour>
    <contour>
      <point x="294" y="276" type="line"/>
      <point x="706" y="802" type="line"/>
      <point x="706" y="276" type="line"/>
    </contour>
  </outline>
</glyph>
<glyph name="four.tf" format="2">
  <advance width="1200"/>
  <outline>
    <contour>
      <point x="704" y="1312" type="line"/>
      <point x="54" y="466" type="line"/>
      <point x="54" y="288" type="line"/>
      <point x="776" y="288" type="line"/>
      <point x="700" y="350" type="line"/>
      <point x="700" y="0" type="line"/>
      <point x="932" y="0" type="line"/>
      <point x="932" y="350" type="line"/>
      <point x="884" y="288" type="line"/>
      <point x="1132" y="288" type="line"/>
      <point x="1132" y="466" type="line"/>
      <point x="882" y="466" type="line"/>
      <point x="932" y="428" type="line"/>
      <point x="932" y="1312" type="line"/>
    </contour>
    <contour>
      <point x="710" y="1066" type="line"/>
      <point x="710" y="402" type="line"/>
      <point x="786" y="466" type="line"/>
      <point x="268" y="466" type="line"/>
      <point x="276" y="410" type="line"/>
      <point x="780" y="1060" type="line"/>
    </contour>
  </outline>
</glyph>
<glyph name="less.tf" format="2">
  <advance width="1200"/>
  <outline>
    <contour>
      <point x="854" y="1234" type="line"/>
      <point x="186" y="750" type="line"/>
      <point x="186" y="538" type="line"/>
      <point x="854" y="56" type="line"/>
      <point x="1012" y="236" type="line"/>
      <point x="358" y="694" type="line"/>
      <point x="358" y="594" type="line"/>
      <point x="1012" y="1054" type="line"/>
    </contour>
  </outline>
</glyph>
<glyph name="minus.tf" format="2">
  <advance width="1200"/>
  <outline>
    <contour>
      <point x="86" y="592" type="line"/>
      <point x="86" y="386" type="line"/>
      <point x="1114" y="386" type="line"/>
      <point x="1114" y="592" type="line"/>
    </contour>
  </outline>
</glyph>
<glyph name="nine.prop" format="2">
  <advance width="1218"/>
  <outline>
    <contour>
      <point x="584" y="-238" type="curve" smooth="yes"/>
      <point x="910" y="-238"/>
      <point x="1126" y="26"/>
      <point x="1126" y="474" type="curve" smooth="yes"/>
      <point x="1126" y="824"/>
      <point x="940" y="1166"/>
      <point x="574" y="1166" type="curve" smooth="yes"/>
      <point x="298" y="1166"/>
      <point x="106" y="986"/>
      <point x="106" y="742" type="curve" smooth="yes"/>
      <point x="106" y="500"/>
      <point x="298" y="326"/>
      <point x="540" y="326" type="curve" smooth="yes"/>
      <point x="716" y="326"/>
      <point x="856" y="434"/>
      <point x="882" y="634" type="curve"/>
      <point x="888" y="590"/>
      <point x="890" y="542"/>
      <point x="890" y="492" type="curve" smooth="yes"/>
      <point x="890" y="176"/>
      <point x="796" y="-22"/>
      <point x="584" y="-22" type="curve" smooth="yes"/>
      <point x="452" y="-22"/>
      <point x="378" y="50"/>
      <point x="372" y="172" type="curve"/>
      <point x="124" y="172" type="line"/>
      <point x="124" y="-72"/>
      <point x="322" y="-238"/>
    </contour>
    <contour>
      <point x="576" y="520" type="curve" smooth="yes"/>
      <point x="436" y="520"/>
      <point x="350" y="612"/>
      <point x="350" y="742" type="curve" smooth="yes"/>
      <point x="350" y="866"/>
      <point x="434" y="960"/>
      <point x="574" y="960" type="curve" smooth="yes"/>
      <point x="714" y="960"/>
      <point x="802" y="866"/>
      <point x="802" y="742" type="curve" smooth="yes"/>
      <point x="802" y="618"/>
      <point x="716" y="520"/>
    </contour>
  </outline>
</glyph>
<glyph name="nine.tf" format="2">
  <advance width="1200"/>
  <outline>
    <contour>
      <point x="576" y="-28" type="curve" smooth="yes"/>
      <point x="932" y="-28"/>
      <point x="1110" y="244"/>
      <point x="1110" y="670" type="curve" smooth="yes"/>
      <point x="1110" y="1062"/>
      <point x="866" y="1324"/>
      <point x="556" y="1324" type="curve" smooth="yes"/>
      <point x="282" y="1324"/>
      <point x="90" y="1160"/>
      <point x="90" y="912" type="curve" smooth="yes"/>
      <point x="90" y="672"/>
      <point x="260" y="502"/>
      <point x="502" y="502" type="curve" smooth="yes"/>
      <point x="678" y="502"/>
      <point x="826" y="588"/>
      <point x="864" y="808" type="curve"/>
      <point x="870" y="766"/>
      <point x="872" y="730"/>
      <point x="872" y="690" type="curve" smooth="yes"/>
      <point x="872" y="388"/>
      <point x="788" y="188"/>
      <point x="568" y="188" type="curve" smooth="yes"/>
      <point x="444" y="188"/>
      <point x="354" y="264"/>
      <point x="348" y="384" type="curve"/>
      <point x="102" y="384" type="line"/>
      <point x="102" y="140"/>
      <point x="308" y="-28"/>
    </contour>
    <contour>
      <point x="560" y="696" type="curve" smooth="yes"/>
      <point x="432" y="696"/>
      <point x="332" y="772"/>
      <point x="332" y="900" type="curve" smooth="yes"/>
      <point x="332" y="1028"/>
      <point x="432" y="1108"/>
      <point x="556" y="1108" type="curve" smooth="yes"/>
      <point x="682" y="1108"/>
      <point x="784" y="1028"/>
      <point x="784" y="900" type="curve" smooth="yes"/>
      <point x="784" y="780"/>
      <point x="682" y="696"/>
    </contour>
  </outline>
</glyph>
<glyph name="numbersign.tf" format="2">
  <advance width="1200"/>
  <outline>
    <contour>
      <point x="206" y="92" type="line"/>
      <point x="428" y="92" type="line"/>
      <point x="454" y="314" type="line"/>
      <point x="672" y="314" type="line"/>
      <point x="646" y="92" type="line"/>
      <point x="868" y="92" type="line"/>
      <point x="894" y="314" type="line"/>
      <point x="1058" y="314" type="line"/>
      <point x="1074" y="470" type="line"/>
      <point x="912" y="470" type="line"/>
      <point x="946" y="784" type="line"/>
      <point x="1106" y="784" type="line"/>
      <point x="1124" y="940" type="line"/>
      <point x="964" y="940" type="line"/>
      <point x="990" y="1160" type="line"/>
      <point x="768" y="1160" type="line"/>
      <point x="744" y="940" type="line"/>
      <point x="524" y="940" type="line"/>
      <point x="550" y="1160" type="line"/>
      <point x="328" y="1160" type="line"/>
      <point x="302" y="940" type="line"/>
      <point x="140" y="940" type="line"/>
      <point x="124" y="784" type="line"/>
      <point x="284" y="784" type="line"/>
      <point x="250" y="470" type="line"/>
      <point x="90" y="470" type="line"/>
      <point x="76" y="314" type="line"/>
      <point x="232" y="314" type="line"/>
    </contour>
    <contour>
      <point x="472" y="470" type="line"/>
      <point x="506" y="784" type="line"/>
      <point x="726" y="784" type="line"/>
      <point x="690" y="470" type="line"/>
    </contour>
  </outline>
</glyph>
<glyph name="one.prop" format="2">
  <advance width="713"/>
  <outline>
    <contour>
      <point x="348" y="1142" type="line"/>
      <point x="258" y="1074"/>
      <point x="174" y="1046"/>
      <point x="84" y="1036" type="curve"/>
      <point x="84" y="810" type="line"/>
      <point x="152" y="812"/>
      <point x="220" y="826"/>
      <point x="290" y="860" type="curve"/>
      <point x="290" y="0" type="line"/>
      <point x="526" y="0" type="line"/>
      <point x="526" y="1142" type="line"/>
    </contour>
  </outline>
</glyph>
<glyph name="one.tf" format="2">
  <advance width="1200"/>
  <outline>
    <contour>
      <point x="238" y="0" type="line"/>
      <point x="970" y="0" type="line"/>
      <point x="970" y="182" type="line"/>
      <point x="658" y="182" type="line"/>
      <point x="722" y="120" type="line"/>
      <point x="722" y="1306" type="line"/>
      <point x="542" y="1306" type="line"/>
      <point x="454" y="1240"/>
      <point x="368" y="1210"/>
      <point x="280" y="1200" type="curve"/>
      <point x="280" y="974" type="line"/>
      <point x="366" y="976"/>
      <point x="452" y="1002"/>
      <point x="548" y="1054" type="curve"/>
      <point x="486" y="1098" type="line"/>
      <point x="486" y="120" type="line"/>
      <point x="548" y="182" type="line"/>
      <point x="238" y="182" type="line"/>
    </contour>
  </outline>
</glyph>
<glyph name="percent.tf" format="2">
  <advance width="1200"/>
  <outline>
    <contour>
      <point x="62" y="0" type="line"/>
      <point x="288" y="0" type="line"/>
      <point x="1138" y="1298" type="line"/>
      <point x="914" y="1298" type="line"/>
    </contour>
    <contour>
      <point x="922" y="-28" type="curve" smooth="yes"/>
      <point x="1052" y="-28"/>
      <point x="1180" y="50"/>
      <point x="1180" y="276" type="curve" smooth="yes"/>
      <point x="1180" y="502"/>
      <point x="1052" y="578"/>
      <point x="922" y="578" type="curve" smooth="yes"/>
      <point x="794" y="578"/>
      <point x="666" y="502"/>
      <point x="666" y="276" type="curve" smooth="yes"/>
      <point x="666" y="50"/>
      <point x="794" y="-28"/>
    </contour>
    <contour>
      <point x="922" y="124" type="curve" smooth="yes"/>
      <point x="866" y="124"/>
      <point x="824" y="160"/>
      <point x="824" y="276" type="curve" smooth="yes"/>
      <point x="824" y="390"/>
      <point x="866" y="430"/>
      <point x="922" y="430" type="curve" smooth="yes"/>
      <point x="974" y="430"/>
      <point x="1018" y="390"/>
      <point x="1018" y="276" type="curve" smooth="yes"/>
      <point x="1018" y="160"/>
      <point x="974" y="124"/>
    </contour>
    <contour>
      <point x="276" y="718" type="curve" smooth="yes"/>
      <point x="406" y="718"/>
      <point x="534" y="796"/>
      <point x="534" y="1022" type="curve" smooth="yes"/>
      <point x="534" y="1246"/>
      <point x="406" y="1324"/>
      <point x="276" y="1324" type="curve" smooth="yes"/>
      <point x="148" y="1324"/>
      <point x="20" y="1246"/>
      <point x="20" y="1022" type="curve" smooth="yes"/>
      <point x="20" y="796"/>
      <point x="148" y="718"/>
    </contour>
    <contour>
      <point x="276" y="868" type="curve" smooth="yes"/>
      <point x="222" y="868"/>
      <point x="180" y="906"/>
      <point x="180" y="1022" type="curve" smooth="yes"/>
      <point x="180" y="1136"/>
      <point x="222" y="1174"/>
      <point x="276" y="1174" type="curve" smooth="yes"/>
      <point x="330" y="1174"/>
      <point x="374" y="1136"/>
      <point x="374" y="1022" type="curve" smooth="yes"/>
      <point x="374" y="906"/>
      <point x="330" y="868"/>
    </contour>
  </outline>
</glyph>
<glyph name="period.tf" format="2">
  <advance width="1200"/>
  <outline>
    <contour>
      <point x="598" y="-26" type="curve" smooth="yes"/>
      <point x="702" y="-26"/>
      <point x="778" y="46"/>
      <point x="778" y="144" type="curve" smooth="yes"/>
      <point x="778" y="240"/>
      <point x="702" y="314"/>
      <point x="598" y="314" type="curve" smooth="yes"/>
      <point x="494" y="314"/>
      <point x="422" y="240"/>
      <point x="422" y="144" type="curve" smooth="yes"/>
      <point x="422" y="46"/>
      <point x="494" y="-26"/>
    </contour>
  </outline>
</glyph>
<glyph name="plus.tf" format="2">
  <advance width="1200"/>
  <outline>
    <contour>
      <point x="482" y="982" type="line"/>
      <point x="482" y="594" type="line"/>
      <point x="94" y="594" type="line"/>
      <point x="94" y="388" type="line"/>
      <point x="482" y="388" type="line"/>
      <point x="482" y="0" type="line"/>
      <point x="718" y="0" type="line"/>
      <point x="718" y="388" type="line"/>
      <point x="1108" y="388" type="line"/>
      <point x="1108" y="594" type="line"/>
      <point x="718" y="594" type="line"/>
      <point x="718" y="982" type="line"/>
    </contour>
  </outline>
</glyph>
<glyph name="question.tf" format="2">
  <advance width="1200"/>
  <outline>
    <contour>
      <point x="440" y="388" type="line"/>
      <point x="676" y="388" type="line"/>
      <point x="676" y="446" type="line" smooth="yes"/>
      <point x="676" y="550"/>
      <point x="716" y="592"/>
      <point x="844" y="658" type="curve" smooth="yes"/>
      <point x="994" y="732"/>
      <point x="1060" y="822"/>
      <point x="1060" y="962" type="curve" smooth="yes"/>
      <point x="1060" y="1166"/>
      <point x="886" y="1324"/>
      <point x="600" y="1324" type="curve" smooth="yes"/>
      <point x="312" y="1324"/>
      <point x="154" y="1172"/>
      <point x="138" y="940" type="curve"/>
      <point x="384" y="940" type="line"/>
      <point x="396" y="1042"/>
      <point x="470" y="1110"/>
      <point x="610" y="1110" type="curve" smooth="yes"/>
      <point x="728" y="1110"/>
      <point x="802" y="1048"/>
      <point x="802" y="964" type="curve" smooth="yes"/>
      <point x="802" y="886"/>
      <point x="766" y="846"/>
      <point x="640" y="780" type="curve" smooth="yes"/>
      <point x="496" y="708"/>
      <point x="440" y="642"/>
      <point x="440" y="468" type="curve" smooth="yes"/>
    </contour>
    <contour>
      <point x="564" y="-28" type="curve" smooth="yes"/>
      <point x="660" y="-28"/>
      <point x="732" y="40"/>
      <point x="732" y="128" type="curve" smooth="yes"/>
      <point x="732" y="218"/>
      <point x="660" y="286"/>
      <point x="564" y="286" type="curve" smooth="yes"/>
      <point x="468" y="286"/>
      <point x="400" y="218"/>
      <point x="400" y="128" type="curve" smooth="yes"/>
      <point x="400" y="40"/>
      <point x="468" y="-28"/>
    </contour>
  </outline>
</glyph>
<glyph name="seven.prop" format="2">
  <advance width="995"/>
  <outline>
    <contour>
      <point x="48" y="1166" type="line"/>
      <point x="48" y="960" type="line"/>
      <point x="718" y="960" type="line"/>
      <point x="72" y="-208" type="line"/>
      <point x="360" y="-208" type="line"/>
      <point x="960" y="962" type="line"/>
      <point x="960" y="1166" type="line"/>
    </contour>
  </outline>
</glyph>
<glyph name="seven.tf" format="2">
  <advance width="1200"/>
  <outline>
    <contour>
      <point x="140" y="1298" type="line"/>
      <point x="140" y="1070" type="line"/>
      <point x="774" y="1070" type="line"/>
      <point x="180" y="0" type="line"/>
      <point x="498" y="0" type="line"/>
      <point x="1052" y="1072" type="line"/>
      <point x="1052" y="1298" type="line"/>
    </contour>
  </outline>
</glyph>
<glyph name="six.tf" format="2">
  <advance width="1200"/>
  <outline>
    <contour>
      <point x="630" y="-28" type="curve" smooth="yes"/>
      <point x="908" y="-28"/>
      <point x="1100" y="138"/>
      <point x="1100" y="384" type="curve" smooth="yes"/>
      <point x="1100" y="624"/>
      <point x="930" y="796"/>
      <point x="686" y="796" type="curve" smooth="yes"/>
      <point x="516" y="796"/>
      <point x="354" y="720"/>
      <point x="322" y="474" type="curve"/>
      <point x="318" y="516"/>
      <point x="316" y="566"/>
      <point x="316" y="606" type="curve" smooth="yes"/>
      <point x="316" y="916"/>
      <point x="442" y="1110"/>
      <point x="648" y="1110" type="curve" smooth="yes"/>
      <point x="762" y="1110"/>
      <point x="822" y="1046"/>
      <point x="836" y="942" type="curve"/>
      <point x="1086" y="942" type="line"/>
      <point x="1076" y="1172"/>
      <point x="898" y="1324"/>
      <point x="640" y="1324" type="curve" smooth="yes"/>
      <point x="304" y="1324"/>
      <point x="78" y="1072"/>
      <point x="78" y="626" type="curve" smooth="yes"/>
      <point x="78" y="248"/>
      <point x="302" y="-28"/>
    </contour>
    <contour>
      <point x="630" y="188" type="curve" smooth="yes"/>
      <point x="506" y="188"/>
      <point x="404" y="270"/>
      <point x="404" y="394" type="curve" smooth="yes"/>
      <point x="404" y="518"/>
      <point x="506" y="602"/>
      <point x="628" y="602" type="curve" smooth="yes"/>
      <point x="754" y="602"/>
      <point x="856" y="524"/>
      <point x="856" y="394" type="curve" smooth="yes"/>
      <point x="856" y="270"/>
      <point x="754" y="188"/>
    </contour>
  </outline>
</glyph>
<glyph name="slash.tf" format="2">
  <advance width="1200"/>
  <outline>
    <contour>
      <point x="224" y="-160" type="line"/>
      <point x="462" y="-160" type="line"/>
      <point x="978" y="1490" type="line"/>
      <point x="738" y="1490" type="line"/>
    </contour>
  </outline>
</glyph>
<glyph name="sterling.tf" format="2">
  <advance width="1200"/>
  <outline>
    <contour>
      <point x="120" y="144" type="line"/>
      <point x="400" y="144"/>
      <point x="490" y="226"/>
      <point x="490" y="402" type="curve" smooth="yes"/>
      <point x="490" y="888" type="line" smooth="yes"/>
      <point x="490" y="1040"/>
      <point x="560" y="1110"/>
      <point x="662" y="1110" type="curve" smooth="yes"/>
      <point x="744" y="1110"/>
      <point x="802" y="1062"/>
      <point x="814" y="974" type="curve"/>
      <point x="1046" y="974" type="line"/>
      <point x="1014" y="1206"/>
      <point x="884" y="1324"/>
      <point x="662" y="1324" type="curve" smooth="yes"/>
      <point x="416" y="1324"/>
      <point x="254" y="1176"/>
      <point x="254" y="888" type="curve" smooth="yes"/>
      <point x="254" y="386" type="line" smooth="yes"/>
      <point x="254" y="268"/>
      <point x="218" y="212"/>
      <point x="120" y="212" type="curve"/>
    </contour>
    <contour>
      <point x="56" y="0" type="line"/>
      <point x="692" y="0" type="line" smooth="yes"/>
      <point x="1016" y="0"/>
      <point x="1136" y="136"/>
      <point x="1144" y="368" type="curve"/>
      <point x="886" y="368" type="line"/>
      <point x="874" y="262"/>
      <point x="824" y="212"/>
      <point x="690" y="212" type="curve" smooth="yes"/>
      <point x="56" y="212" type="line"/>
    </contour>
    <contour>
      <point x="90" y="562" type="line"/>
      <point x="832" y="562" type="line"/>
      <point x="832" y="720" type="line"/>
      <point x="90" y="720" type="line"/>
    </contour>
  </outline>
</glyph>
<glyph name="three.prop" format="2">
  <advance width="1177"/>
  <outline>
    <contour>
      <point x="546" y="-238" type="curve" smooth="yes"/>
      <point x="846" y="-238"/>
      <point x="1046" y="-64"/>
      <point x="1046" y="168" type="curve" smooth="yes"/>
      <point x="1046" y="334"/>
      <point x="954" y="470"/>
      <point x="792" y="532" type="curve"/>
      <point x="924" y="586"/>
      <point x="1002" y="676"/>
      <point x="1002" y="812" type="curve" smooth="yes"/>
      <point x="1002" y="1014"/>
      <point x="826" y="1166"/>
      <point x="544" y="1166" type="curve" smooth="yes"/>
      <point x="280" y="1166"/>
      <point x="96" y="1064"/>
      <point x="66" y="796" type="curve"/>
      <point x="318" y="796" type="line"/>
      <point x="334" y="904"/>
      <point x="426" y="968"/>
      <point x="548" y="968" type="curve" smooth="yes"/>
      <point x="682" y="968"/>
      <point x="766" y="892"/>
      <point x="766" y="788" type="curve" smooth="yes"/>
      <point x="766" y="670"/>
      <point x="672" y="600"/>
      <point x="520" y="600" type="curve" smooth="yes"/>
      <point x="398" y="600" type="line"/>
      <point x="398" y="414" type="line"/>
      <point x="532" y="414" type="line" smooth="yes"/>
      <point x="710" y="414"/>
      <point x="808" y="316"/>
      <point x="808" y="188" type="curve" smooth="yes"/>
      <point x="808" y="56"/>
      <point x="700" y="-38"/>
      <point x="546" y="-38" type="curve" smooth="yes"/>
      <point x="400" y="-38"/>
      <point x="290" y="30"/>
      <point x="280" y="190" type="curve"/>
      <point x="40" y="190" type="line"/>
      <point x="40" y="-104"/>
      <point x="280" y="-238"/>
    </contour>
  </outline>
</glyph>
<glyph name="three.tf" format="2">
  <advance width="1200"/>
  <outline>
    <contour>
      <point x="608" y="-28" type="curve" smooth="yes"/>
      <point x="918" y="-28"/>
      <point x="1122" y="134"/>
      <point x="1122" y="364" type="curve" smooth="yes"/>
      <point x="1122" y="520"/>
      <point x="1020" y="626"/>
      <point x="864" y="680" type="curve"/>
      <point x="1004" y="728"/>
      <point x="1078" y="830"/>
      <point x="1078" y="962" type="curve" smooth="yes"/>
      <point x="1078" y="1176"/>
      <point x="870" y="1324"/>
      <point x="590" y="1324" type="curve" smooth="yes"/>
      <point x="322" y="1324"/>
      <point x="124" y="1210"/>
      <point x="96" y="944" type="curve"/>
      <point x="346" y="944" type="line"/>
      <point x="370" y="1066"/>
      <point x="476" y="1110"/>
      <point x="598" y="1110" type="curve" smooth="yes"/>
      <point x="748" y="1110"/>
      <point x="824" y="1034"/>
      <point x="824" y="934" type="curve" smooth="yes"/>
      <point x="824" y="822"/>
      <point x="730" y="752"/>
      <point x="580" y="752" type="curve" smooth="yes"/>
      <point x="432" y="752" type="line"/>
      <point x="432" y="566" type="line"/>
      <point x="606" y="566" type="line" smooth="yes"/>
      <point x="784" y="566"/>
      <point x="868" y="498"/>
      <point x="868" y="386" type="curve" smooth="yes"/>
      <point x="868" y="272"/>
      <point x="770" y="188"/>
      <point x="608" y="188" type="curve" smooth="yes"/>
      <point x="442" y="188"/>
      <point x="328" y="272"/>
      <point x="320" y="408" type="curve"/>
      <point x="70" y="408" type="line"/>
      <point x="70" y="122"/>
      <point x="334" y="-28"/>
    </contour>
  </outline>
</glyph>
<glyph name="two.prop" format="2">
  <advance width="1190"/>
  <outline>
    <contour>
      <point x="120" y="0" type="line"/>
      <point x="1066" y="0" type="line"/>
      <point x="1066" y="216" type="line"/>
      <point x="356" y="216" type="line"/>
      <point x="356" y="264" type="line" smooth="yes"/>
      <point x="356" y="332"/>
      <point x="402" y="380"/>
      <point x="514" y="408" type="curve" smooth="yes"/>
      <point x="724" y="460" type="line" smooth="yes"/>
      <point x="958" y="518"/>
      <point x="1058" y="620"/>
      <point x="1058" y="808" type="curve" smooth="yes"/>
      <point x="1058" y="1010"/>
      <point x="882" y="1166"/>
      <point x="614" y="1166" type="curve" smooth="yes"/>
      <point x="340" y="1166"/>
      <point x="148" y="1046"/>
      <point x="142" y="800" type="curve"/>
      <point x="404" y="800" type="line"/>
      <point x="416" y="910"/>
      <point x="502" y="960"/>
      <point x="626" y="960" type="curve" smooth="yes"/>
      <point x="748" y="960"/>
      <point x="822" y="892"/>
      <point x="822" y="810" type="curve" smooth="yes"/>
      <point x="822" y="716"/>
      <point x="768" y="658"/>
      <point x="622" y="622" type="curve" smooth="yes"/>
      <point x="432" y="576" type="line" smooth="yes"/>
      <point x="220" y="524"/>
      <point x="120" y="422"/>
      <point x="120" y="196" type="curve" smooth="yes"/>
    </contour>
  </outline>
</glyph>
<glyph name="two.tf" format="2">
  <advance width="1200"/>
  <outline>
    <contour>
      <point x="108" y="0" type="line"/>
      <point x="1086" y="0" type="line"/>
      <point x="1086" y="216" type="line"/>
      <point x="344" y="216" type="line"/>
      <point x="344" y="254" type="line" smooth="yes"/>
      <point x="344" y="332"/>
      <point x="388" y="376"/>
      <point x="492" y="416" type="curve" smooth="yes"/>
      <point x="762" y="520" type="line" smooth="yes"/>
      <point x="986" y="606"/>
      <point x="1094" y="730"/>
      <point x="1094" y="930" type="curve" smooth="yes"/>
      <point x="1094" y="1166"/>
      <point x="888" y="1324"/>
      <point x="626" y="1324" type="curve" smooth="yes"/>
      <point x="348" y="1324"/>
      <point x="136" y="1194"/>
      <point x="130" y="928" type="curve"/>
      <point x="392" y="928" type="line"/>
      <point x="404" y="1052"/>
      <point x="500" y="1118"/>
      <point x="630" y="1118" type="curve" smooth="yes"/>
      <point x="766" y="1118"/>
      <point x="840" y="1040"/>
      <point x="840" y="940" type="curve" smooth="yes"/>
      <point x="840" y="840"/>
      <point x="786" y="774"/>
      <point x="670" y="728" type="curve" smooth="yes"/>
      <point x="404" y="626" type="line" smooth="yes"/>
      <point x="206" y="548"/>
      <point x="108" y="440"/>
      <point x="108" y="222" type="curve" smooth="yes"/>
    </contour>
  </outline>
</glyph>
<glyph name="yen.tf" format="2">
  <advance width="1200"/>
  <outline>
    <contour>
      <point x="474" y="0" type="line"/>
      <point x="710" y="0" type="line"/>
      <point x="710" y="536" type="line"/>
      <point x="1158" y="1298" type="line"/>
      <point x="878" y="1298" type="line"/>
      <point x="572" y="740" type="line"/>
      <point x="616" y="740" type="line"/>
      <point x="322" y="1298" type="line"/>
      <point x="42" y="1298" type="line"/>
      <point x="474" y="536" type="line"/>
    </contour>
    <contour>
      <point x="246" y="170" type="line"/>
      <point x="944" y="170" type="line"/>
      <point x="944" y="302" type="line"/>
      <point x="246" y="302" type="line"/>
    </contour>
    <contour>
      <point x="246" y="384" type="line"/>
      <point x="944" y="384" type="line"/>
      <point x="944" y="516" type="line"/>
      <point x="246" y="516" type="line"/>
    </contour>
  </outline>
</glyph>
<glyph name="zero.prop" format="2">
  <advance width="1139"/>
  <outline>
    <contour>
      <point x="570" y="1166" type="curve" smooth="yes"/>
      <point x="292" y="1166"/>
      <point x="94" y="954"/>
      <point x="94" y="570" type="curve" smooth="yes"/>
      <point x="94" y="184"/>
      <point x="292" y="-28"/>
      <point x="570" y="-28" type="curve" smooth="yes"/>
      <point x="848" y="-28"/>
      <point x="1044" y="184"/>
      <point x="1044" y="570" type="curve" smooth="yes"/>
      <point x="1044" y="954"/>
      <point x="848" y="1166"/>
    </contour>
    <contour>
      <point x="570" y="954" type="curve" smooth="yes"/>
      <point x="730" y="954"/>
      <point x="810" y="830"/>
      <point x="810" y="570" type="curve" smooth="yes"/>
      <point x="810" y="310"/>
      <point x="730" y="186"/>
      <point x="570" y="186" type="curve" smooth="yes"/>
      <point x="412" y="186"/>
      <point x="332" y="310"/>
      <point x="332" y="570" type="curve" smooth="yes"/>
      <point x="332" y="830"/>
      <point x="412" y="954"/>
    </contour>
  </outline>
</glyph>
<glyph name="zero.tf" format="2">
  <advance width="1200"/>
  <outline>
    <contour>
      <point x="600" y="-28" type="curve" smooth="yes"/>
      <point x="916" y="-28"/>
      <point x="1138" y="192"/>
      <point x="1138" y="648" type="curve" smooth="yes"/>
      <point x="1138" y="1106"/>
      <point x="916" y="1324"/>
      <point x="600" y="1324" type="curve" smooth="yes"/>
      <point x="282" y="1324"/>
      <point x="62" y="1106"/>
      <point x="62" y="648" type="curve" smooth="yes"/>
      <point x="62" y="192"/>
      <point x="282" y="-28"/>
    </contour>
    <contour>
      <point x="600" y="188" type="curve" smooth="yes"/>
      <point x="414" y="188"/>
      <point x="304" y="350"/>
      <point x="304" y="648" type="curve" smooth="yes"/>
      <point x="304" y="946"/>
      <point x="414" y="1110"/>
      <point x="600" y="1110" type="curve" smooth="yes"/>
      <point x="788" y="1110"/>
      <point x="896" y="946"/>
      <point x="896" y="648" type="curve" smooth="yes"/>
      <point x="896" y="350"/>
      <point x="788" y="188"/>
    </contour>
  </outline>
</glyph>
